<svg width="25" height="25" viewBox="0 0 25 25" fill="none" xmlns="http://www.w3.org/2000/svg">
<path d="M15.1625 16.1958L14.6886 16.6958C14.6886 16.6958 13.5604 17.8823 10.4823 14.6417C7.40418 11.4011 8.5323 10.2146 8.5323 10.2146L8.83126 9.89897C9.56668 9.12397 9.63647 7.88022 8.99376 6.97188L7.68126 5.11459C6.88543 3.98959 5.34897 3.84168 4.43751 4.80105L2.80314 6.52084C2.3521 6.99688 2.05001 7.61251 2.08647 8.29688C2.18022 10.0469 2.92814 13.8104 7.09897 18.2031C11.5229 22.8594 15.674 23.0448 17.3708 22.8771C17.9083 22.825 18.375 22.5344 18.7511 22.1385L20.2302 20.5802C21.2302 19.5281 20.949 17.7261 19.6698 16.9906L17.6802 15.8448C16.8406 15.3625 15.8188 15.5042 15.1625 16.1948" fill="#282C2D"/>
<path fill-rule="evenodd" clip-rule="evenodd" d="M22.9167 7.29168C22.9168 8.17855 22.6905 9.05078 22.2592 9.82569C21.8278 10.6006 21.2057 11.2525 20.4519 11.7197C19.698 12.1869 18.8373 12.4538 17.9514 12.4952C17.0655 12.5366 16.1837 12.3511 15.3896 11.9563C15.2054 11.8612 14.9928 11.8364 14.7917 11.8865L13.6323 12.1969C13.5175 12.2276 13.3966 12.2276 13.2819 12.1968C13.1671 12.1661 13.0624 12.1056 12.9784 12.0216C12.8944 11.9376 12.8339 11.8329 12.8032 11.7181C12.7724 11.6034 12.7724 11.4825 12.8031 11.3677L13.1135 10.2083C13.1636 10.0072 13.1388 9.79466 13.0438 9.61043C12.6945 8.90732 12.5087 8.13437 12.5003 7.34935C12.4919 6.56434 12.661 5.78757 12.9951 5.07713C13.3292 4.3667 13.8195 3.74097 14.4295 3.24674C15.0394 2.75252 15.7532 2.40257 16.5175 2.22308C17.2818 2.04358 18.0767 2.03918 18.8429 2.2102C19.6091 2.38122 20.3268 2.72324 20.9422 3.21068C21.5576 3.69813 22.0548 4.31838 22.3968 5.02508C22.7387 5.73177 22.9164 6.50661 22.9167 7.29168ZM17.7083 5.01355C18.2479 5.01355 18.6854 5.45105 18.6854 5.98959V6.31564H19.0104C19.2694 6.31564 19.5178 6.41852 19.701 6.60166C19.8841 6.7848 19.987 7.0332 19.987 7.2922C19.987 7.5512 19.8841 7.79959 19.701 7.98273C19.5178 8.16587 19.2694 8.26876 19.0104 8.26876H18.6854V8.59376C18.6854 8.85276 18.5825 9.10115 18.3994 9.28429C18.2162 9.46743 17.9679 9.57032 17.7089 9.57032C17.4499 9.57032 17.2015 9.46743 17.0183 9.28429C16.8352 9.10115 16.7323 8.85276 16.7323 8.59376V8.26876H16.4063C16.1472 8.26876 15.8989 8.16587 15.7157 7.98273C15.5326 7.79959 15.4297 7.5512 15.4297 7.2922C15.4297 7.0332 15.5326 6.7848 15.7157 6.60166C15.8989 6.41852 16.1472 6.31564 16.4063 6.31564H16.7323V5.98959C16.7323 5.45001 17.1698 5.01355 17.7083 5.01355Z" fill="#282C2D"/>
</svg>
