<svg width="25" height="25" viewBox="0 0 25 25" fill="none" xmlns="http://www.w3.org/2000/svg">
<path d="M2.92695 5.41252C2.88066 4.08147 3.91758 2.85413 5.31934 2.85413H19.6826C21.0844 2.85413 22.1213 4.08147 22.075 5.41252C22.0305 6.69104 22.0883 8.34729 22.5051 9.69768C22.9232 11.0524 23.6283 11.9084 24.7832 12.0186V13.266C23.6283 13.3762 22.9232 14.2323 22.5051 15.5869C22.0883 16.9373 22.0305 18.5936 22.075 19.8721C22.1213 21.2031 21.0844 22.4303 19.6826 22.4303H5.31934C3.91758 22.4303 2.88066 21.203 2.92695 19.8721C2.97148 18.5936 2.91367 16.9373 2.49668 15.5869C2.07871 14.2324 1.37168 13.3762 0.216797 13.266V12.0186C1.37168 11.9086 2.07871 11.0524 2.49668 9.69768C2.91367 8.34729 2.97129 6.69104 2.92695 5.41252Z" fill="url(#paint0_linear_1207_1111)"/>
<g filter="url(#filter0_d_1207_1111)">
<path d="M13.1071 17.9173C15.3764 17.9173 16.7439 16.8061 16.7439 14.9734C16.7439 13.5881 15.7682 12.5851 14.3194 12.4264V12.3686C15.3838 12.1955 16.2191 11.207 16.2191 10.1031C16.2191 8.53012 14.9773 7.50549 13.0849 7.50549H8.82715V17.9173H13.1071ZM10.483 8.82592H12.6858C13.8833 8.82592 14.5633 9.35984 14.5633 10.3267C14.5633 11.3585 13.7724 11.9357 12.3384 11.9357H10.483V8.82592ZM10.483 16.5968V13.1695H12.671C14.2381 13.1695 15.0512 13.7467 15.0512 14.8724C15.0512 15.9979 14.2603 16.5968 12.7671 16.5968H10.483Z" fill="url(#paint1_linear_1207_1111)"/>
</g>
<defs>
<filter id="filter0_d_1207_1111" x="8.33583" y="7.137" width="8.89963" height="11.3944" filterUnits="userSpaceOnUse" color-interpolation-filters="sRGB">
<feFlood flood-opacity="0" result="BackgroundImageFix"/>
<feColorMatrix in="SourceAlpha" type="matrix" values="0 0 0 0 0 0 0 0 0 0 0 0 0 0 0 0 0 0 127 0" result="hardAlpha"/>
<feOffset dy="0.12283"/>
<feGaussianBlur stdDeviation="0.24566"/>
<feColorMatrix type="matrix" values="0 0 0 0 0 0 0 0 0 0 0 0 0 0 0 0 0 0 0.15 0"/>
<feBlend mode="normal" in2="BackgroundImageFix" result="effect1_dropShadow_1207_1111"/>
<feBlend mode="normal" in="SourceGraphic" in2="effect1_dropShadow_1207_1111" result="shape"/>
</filter>
<linearGradient id="paint0_linear_1207_1111" x1="3.8673" y1="3.37222" x2="25.3338" y2="20.4126" gradientUnits="userSpaceOnUse">
<stop stop-color="#9013FE"/>
<stop offset="1" stop-color="#6610F2"/>
</linearGradient>
<linearGradient id="paint1_linear_1207_1111" x1="9.57622" y1="8.19065" x2="14.3743" y2="16.3056" gradientUnits="userSpaceOnUse">
<stop stop-color="white"/>
<stop offset="1" stop-color="#F1E5FC"/>
</linearGradient>
</defs>
</svg>
