<svg width="55" height="55" viewBox="0 0 55 55" fill="none" xmlns="http://www.w3.org/2000/svg">
<path d="M6.43891 11.9075C6.33707 8.97918 8.61828 6.27902 11.7021 6.27902H43.3014C46.3852 6.27902 48.6664 8.97918 48.5646 11.9075C48.4666 14.7202 48.5938 18.364 49.5108 21.3348C50.4307 24.3152 51.9819 26.1985 54.5227 26.4408V29.1852C51.9819 29.4276 50.4307 31.3109 49.5108 34.2912C48.5938 37.2621 48.4666 40.9058 48.5646 43.7186C48.6664 46.6469 46.3852 49.3466 43.3014 49.3466H11.7021C8.61828 49.3466 6.33707 46.6464 6.43891 43.7186C6.53687 40.9058 6.40969 37.2621 5.4923 34.2912C4.57277 31.3113 3.0173 29.4276 0.476562 29.1852V26.4408C3.0173 26.1989 4.57277 24.3152 5.4923 21.3348C6.40969 18.364 6.53644 14.7202 6.43891 11.9075Z" fill="url(#paint0_linear_1250_13)"/>
<g filter="url(#filter0_d_1250_13)">
<path d="M28.8358 39.4179C33.8284 39.4179 36.8368 36.9734 36.8368 32.9415C36.8368 29.8937 34.6902 27.6873 31.5028 27.338V27.211C33.8446 26.83 35.6822 24.6554 35.6822 22.2267C35.6822 18.7662 32.9502 16.5121 28.7871 16.5121H19.4199V39.4179H28.8358ZM23.0627 19.417H27.9089C30.5434 19.417 32.0395 20.5916 32.0395 22.7187C32.0395 24.9887 30.2995 26.2586 27.1446 26.2586H23.0627V19.417ZM23.0627 36.513V28.973H27.8763C31.3239 28.973 33.1128 30.2428 33.1128 32.7192C33.1128 35.1954 31.3728 36.513 28.0877 36.513H23.0627Z" fill="url(#paint1_linear_1250_13)"/>
</g>
<defs>
<filter id="filter0_d_1250_13" x="18.9286" y="16.1436" width="18.3996" height="23.8885" filterUnits="userSpaceOnUse" color-interpolation-filters="sRGB">
<feFlood flood-opacity="0" result="BackgroundImageFix"/>
<feColorMatrix in="SourceAlpha" type="matrix" values="0 0 0 0 0 0 0 0 0 0 0 0 0 0 0 0 0 0 127 0" result="hardAlpha"/>
<feOffset dy="0.12283"/>
<feGaussianBlur stdDeviation="0.24566"/>
<feColorMatrix type="matrix" values="0 0 0 0 0 0 0 0 0 0 0 0 0 0 0 0 0 0 0.15 0"/>
<feBlend mode="normal" in2="BackgroundImageFix" result="effect1_dropShadow_1250_13"/>
<feBlend mode="normal" in="SourceGraphic" in2="effect1_dropShadow_1250_13" result="shape"/>
</filter>
<linearGradient id="paint0_linear_1250_13" x1="8.50767" y1="7.41883" x2="55.734" y2="44.9076" gradientUnits="userSpaceOnUse">
<stop stop-color="#9013FE"/>
<stop offset="1" stop-color="#6610F2"/>
</linearGradient>
<linearGradient id="paint1_linear_1250_13" x1="21.0679" y1="18.0194" x2="31.6236" y2="35.8723" gradientUnits="userSpaceOnUse">
<stop stop-color="white"/>
<stop offset="1" stop-color="#F1E5FC"/>
</linearGradient>
</defs>
</svg>
