<svg width="51" height="51" viewBox="0 0 51 51" fill="none" xmlns="http://www.w3.org/2000/svg">
<g clip-path="url(#clip0_1254_11)">
<path d="M48.1946 2.8054C46.3226 0.933432 44.0703 -0.00169947 41.4377 2.31851e-06H9.56234C6.92798 2.31851e-06 4.67566 0.935134 2.8054 2.8054C0.933432 4.67736 -0.00169947 6.92968 2.31851e-06 9.56234V41.4377C2.31851e-06 44.072 0.935134 46.3243 2.8054 48.1946C4.67736 50.0666 6.92968 51.0017 9.56234 51H17.0009C17.4859 51 17.8509 50.983 18.096 50.9489C18.3814 50.8926 18.6389 50.7403 18.826 50.5175C19.0694 50.2623 19.1911 49.8921 19.1911 49.4071L19.1732 47.148C19.163 45.7083 19.1579 44.5681 19.1579 43.7274L18.3921 43.8602C17.9071 43.9486 17.2936 43.9878 16.5516 43.9776C15.7774 43.9628 15.0056 43.8851 14.244 43.7453C13.4325 43.5981 12.6687 43.2565 12.018 42.7497C11.335 42.2333 10.8257 41.5209 10.5579 40.7076L10.226 39.9418C9.94526 39.3383 9.59395 38.7702 9.17944 38.2494C8.70294 37.6299 8.22133 37.2096 7.73462 36.9883L7.50488 36.8224C7.34535 36.7069 7.19973 36.5732 7.07093 36.4242C6.9479 36.2857 6.84714 36.129 6.77226 35.9596C6.70589 35.803 6.7612 35.6754 6.93819 35.5767C7.11517 35.4746 7.43681 35.4244 7.9031 35.4261L8.5668 35.5282C9.00926 35.615 9.55639 35.8796 10.2082 36.3221C10.8669 36.7712 11.4172 37.3616 11.8189 38.0503C12.3294 38.9556 12.9438 39.6474 13.6619 40.1256C14.3818 40.6021 15.1068 40.8403 15.8368 40.8403C16.5669 40.8403 17.1983 40.785 17.7309 40.6744C18.2468 40.5675 18.7481 40.3995 19.2242 40.1741C19.4233 38.6918 19.9654 37.5516 20.8503 36.7535C19.7027 36.6401 18.5652 36.4404 17.4476 36.1562C16.3569 35.8569 15.3081 35.4221 14.3256 34.862C13.2975 34.3022 12.3894 33.5459 11.653 32.636C10.945 31.7511 10.3639 30.5896 9.90951 29.1516C9.45683 27.7119 9.23049 26.051 9.23049 24.1688C9.23049 21.4919 10.1044 19.2115 11.8521 17.3276C11.0352 15.3144 11.1127 13.0578 12.0844 10.5579C12.7277 10.3571 13.6798 10.506 14.9408 11.0046C16.2019 11.5032 17.1259 11.9287 17.7131 12.2809C18.3002 12.6383 18.7707 12.9378 19.1247 13.1795C21.1997 12.6009 23.3445 12.3106 25.4987 12.3167C27.6906 12.3167 29.8162 12.6043 31.8753 13.1795L33.1363 12.3831C34.1063 11.8007 35.1295 11.3118 36.1919 10.9229C37.3644 10.4805 38.2613 10.3588 38.8824 10.5579C39.878 13.0595 39.9656 15.3169 39.1454 17.3301C40.8948 19.2106 41.7695 21.491 41.7695 24.1713C41.7695 26.0535 41.5423 27.7187 41.0879 29.1669C40.6353 30.6168 40.049 31.7792 39.3291 32.6539C38.5776 33.55 37.6661 34.2987 36.6412 34.862C35.569 35.4593 34.5284 35.8907 33.5192 36.1562C32.4017 36.4413 31.2642 36.6418 30.1165 36.756C31.2652 37.7516 31.8404 39.3223 31.8421 41.4683V49.4071C31.8421 49.7815 31.8974 50.0853 32.0081 50.3184C32.0597 50.4303 32.1333 50.5307 32.2245 50.6136C32.3157 50.6965 32.4227 50.7602 32.539 50.8009C32.7824 50.8894 32.9985 50.9438 33.1874 50.9643C33.3763 50.9881 33.6469 50.9991 33.9992 50.9974H41.4377C44.072 50.9974 46.3243 50.0623 48.1946 48.192C50.0649 46.3218 51 44.0695 51 41.4351V9.56234C51 6.92798 50.0666 4.67566 48.1946 2.8054Z" fill="black"/>
</g>
<defs>
<clipPath id="clip0_1254_11">
<rect width="51" height="51" fill="white"/>
</clipPath>
</defs>
</svg>
