<svg width="25" height="25" viewBox="0 0 25 25" fill="none" xmlns="http://www.w3.org/2000/svg">
<g clip-path="url(#clip0_548_829)">
<path d="M19.1406 0H5.85938C2.62333 0 0 2.62333 0 5.85938V19.1406C0 22.3767 2.62333 25 5.85938 25H19.1406C22.3767 25 25 22.3767 25 19.1406V5.85938C25 2.62333 22.3767 0 19.1406 0Z" fill="white"/>
<path d="M19.1406 0H5.85938C2.62333 0 0 2.62333 0 5.85938V19.1406C0 22.3767 2.62333 25 5.85938 25H19.1406C22.3767 25 25 22.3767 25 19.1406V5.85938C25 2.62333 22.3767 0 19.1406 0Z" fill="#0A66C2"/>
<path d="M18.0386 21.2583H20.897C21.0006 21.2583 21.0999 21.2172 21.1732 21.1439C21.2464 21.0707 21.2876 20.9714 21.2876 20.8678L21.2891 14.8285C21.2891 11.672 20.6089 9.2457 16.9201 9.2457C15.5179 9.19355 14.1955 9.91641 13.4819 11.1234C13.4784 11.1293 13.4731 11.1339 13.4668 11.1364C13.4605 11.139 13.4535 11.1394 13.4469 11.1376C13.4403 11.1358 13.4345 11.132 13.4303 11.1266C13.4262 11.1212 13.4239 11.1145 13.4238 11.1077V9.92773C13.4238 9.82413 13.3827 9.72478 13.3094 9.65152C13.2362 9.57826 13.1368 9.53711 13.0332 9.53711H10.3206C10.217 9.53711 10.1176 9.57826 10.0444 9.65152C9.97114 9.72478 9.92998 9.82413 9.92998 9.92773V20.8672C9.92998 20.9708 9.97114 21.0701 10.0444 21.1434C10.1176 21.2167 10.217 21.2578 10.3206 21.2578H13.1788C13.2824 21.2578 13.3818 21.2167 13.455 21.1434C13.5283 21.0701 13.5694 20.9708 13.5694 20.8672V15.4597C13.5694 13.9307 13.8595 12.4499 15.7551 12.4499C17.6237 12.4499 17.6479 14.1995 17.6479 15.5587V20.8677C17.6479 20.9713 17.6891 21.0706 17.7624 21.1439C17.8356 21.2171 17.935 21.2583 18.0386 21.2583ZM3.71094 5.82305C3.71094 6.98164 4.66475 7.93496 5.82344 7.93496C6.98184 7.93486 7.93506 6.98096 7.93506 5.82256C7.93486 4.66416 6.98154 3.71094 5.82305 3.71094C4.66426 3.71094 3.71094 4.66445 3.71094 5.82305ZM4.39053 21.2583H7.25254C7.35614 21.2583 7.4555 21.2171 7.52875 21.1439C7.60201 21.0706 7.64316 20.9713 7.64316 20.8677V9.92773C7.64316 9.82413 7.60201 9.72478 7.52875 9.65152C7.4555 9.57826 7.35614 9.53711 7.25254 9.53711H4.39053C4.28693 9.53711 4.18757 9.57826 4.11431 9.65152C4.04106 9.72478 3.9999 9.82413 3.9999 9.92773V20.8677C3.9999 20.9713 4.04106 21.0706 4.11431 21.1439C4.18757 21.2171 4.28693 21.2583 4.39053 21.2583Z" fill="white"/>
</g>
<defs>
<clipPath id="clip0_548_829">
<rect width="25" height="25" fill="white"/>
</clipPath>
</defs>
</svg>
