<svg width="25" height="25" viewBox="0 0 25 25" fill="none" xmlns="http://www.w3.org/2000/svg">
<g clip-path="url(#clip0_548_856)">
<path d="M23.6248 1.3752C22.7072 0.457565 21.6031 -0.000833073 20.3126 1.13652e-06H4.68742C3.39607 1.13652e-06 2.29199 0.458399 1.3752 1.3752C0.457565 2.29283 -0.000833073 3.3969 1.13653e-06 4.68742V20.3126C1.13653e-06 21.6039 0.458399 22.708 1.3752 23.6248C2.29283 24.5424 3.3969 25.0008 4.68742 25H8.33375C8.5715 25 8.75044 24.9917 8.87057 24.975C9.01047 24.9473 9.13674 24.8727 9.22844 24.7635C9.34773 24.6384 9.40738 24.4569 9.40738 24.2192L9.39862 23.1118C9.39361 22.406 9.39111 21.8471 9.39111 21.435L9.01572 21.5001C8.77797 21.5435 8.47724 21.5626 8.11352 21.5576C7.734 21.5504 7.35569 21.5123 6.98233 21.4438C6.58454 21.3716 6.21015 21.2042 5.89119 20.9558C5.5564 20.7026 5.30672 20.3534 5.17544 19.9547L5.01276 19.5793C4.87513 19.2835 4.70292 19.005 4.49973 18.7497C4.26615 18.446 4.03007 18.24 3.79148 18.1315L3.67886 18.0502C3.60066 17.9936 3.52928 17.9281 3.46614 17.855C3.40583 17.7871 3.35644 17.7103 3.31974 17.6273C3.2872 17.5505 3.31431 17.4879 3.40107 17.4396C3.48783 17.3895 3.6455 17.3649 3.87407 17.3657L4.19941 17.4158C4.41631 17.4583 4.6845 17.5881 5.00401 17.8049C5.32692 18.0251 5.59666 18.3145 5.79358 18.6521C6.04385 19.0959 6.345 19.435 6.69703 19.6694C7.0499 19.903 7.40528 20.0198 7.76315 20.0198C8.12103 20.0198 8.43052 19.9927 8.69163 19.9384C8.9445 19.886 9.19024 19.8037 9.42365 19.6932C9.52125 18.9666 9.78694 18.4077 10.2207 18.0164C9.65817 17.9608 9.1006 17.8629 8.55273 17.7236C8.0181 17.5769 7.50397 17.3638 7.02238 17.0892C6.5184 16.8148 6.07326 16.4441 5.71225 15.998C5.36522 15.5643 5.08034 14.9949 4.8576 14.29C4.6357 13.5843 4.52475 12.7701 4.52475 11.8474C4.52475 10.5352 4.95312 9.41739 5.80985 8.49392C5.40943 7.50705 5.44739 6.40089 5.92372 5.17544C6.23905 5.077 6.70579 5.14999 7.32394 5.39441C7.94209 5.63884 8.39507 5.84739 8.68287 6.02007C8.97067 6.19526 9.20133 6.34208 9.37485 6.46053C10.392 6.17692 11.4434 6.0346 12.4994 6.03759C13.5738 6.03759 14.6158 6.17857 15.6252 6.46053L16.2433 6.07012C16.7188 5.78466 17.2203 5.545 17.7411 5.35437C18.3159 5.13748 18.7555 5.07783 19.06 5.17544C19.548 6.40172 19.591 7.5083 19.1889 8.49517C20.0465 9.41697 20.4753 10.5348 20.4753 11.8487C20.4753 12.7713 20.3639 13.5876 20.1411 14.2975C19.9193 15.0083 19.6319 15.578 19.279 16.0068C18.9106 16.4461 18.4638 16.8131 17.9614 17.0892C17.4358 17.382 16.9257 17.5935 16.431 17.7236C15.8832 17.8634 15.3256 17.9617 14.763 18.0177C15.3261 18.5057 15.6081 19.2757 15.6089 20.3276V24.2192C15.6089 24.4027 15.636 24.5516 15.6902 24.6659C15.7155 24.7208 15.7516 24.77 15.7963 24.8106C15.841 24.8512 15.8935 24.8824 15.9505 24.9024C16.0698 24.9458 16.1757 24.9725 16.2683 24.9825C16.3609 24.9942 16.4936 24.9996 16.6663 24.9987H20.3126C21.6039 24.9987 22.708 24.5403 23.6248 23.6236C24.5416 22.7068 25 21.6027 25 20.3113V4.68742C25 3.39607 24.5424 2.29199 23.6248 1.3752Z" fill="black"/>
</g>
<defs>
<clipPath id="clip0_548_856">
<rect width="25" height="25" fill="white"/>
</clipPath>
</defs>
</svg>
