<svg width="25" height="25" viewBox="0 0 25 25" fill="none" xmlns="http://www.w3.org/2000/svg">
<g clip-path="url(#clip0_558_891)">
<mask id="mask0_558_891" style="mask-type:luminance" maskUnits="userSpaceOnUse" x="0" y="0" width="25" height="25">
<path d="M0 0H25V25H0V0Z" fill="white"/>
<path d="M10.3846 8.99037C10.9231 8.99037 11.3558 8.55768 11.3558 8.01922C11.3558 7.48076 10.9231 7.04807 10.3846 7.04807C9.84614 7.04807 9.41345 7.48076 9.41345 8.01922C9.41345 8.55768 9.84614 8.99037 10.3846 8.99037Z" fill="black"/>
<path fill-rule="evenodd" clip-rule="evenodd" d="M12.3365 11.1058C12.3365 10.0673 11.4615 9.31732 10.3846 9.31732C9.30768 9.31732 8.43268 10.0673 8.43268 11.1058V11.5962C8.43268 11.6827 8.47114 11.7692 8.52884 11.8269C8.58653 11.8846 8.67307 11.9231 8.75961 11.9231H12.0096C12.0961 11.9231 12.1827 11.8846 12.2404 11.8269C12.2981 11.7692 12.3365 11.6827 12.3365 11.5962V11.1058ZM8.41345 13.9423C8.41345 13.7511 8.48943 13.5676 8.62467 13.4324C8.75992 13.2971 8.94334 13.2212 9.13461 13.2212H15.8654C16.0566 13.2212 16.2401 13.2971 16.3753 13.4324C16.5106 13.5676 16.5865 13.7511 16.5865 13.9423C16.5865 14.1336 16.5106 14.317 16.3753 14.4523C16.2401 14.5875 16.0566 14.6635 15.8654 14.6635H9.13461C8.94334 14.6635 8.75992 14.5875 8.62467 14.4523C8.48943 14.317 8.41345 14.1336 8.41345 13.9423ZM8.41345 16.8269C8.41345 16.6357 8.48943 16.4522 8.62467 16.317C8.75992 16.1818 8.94334 16.1058 9.13461 16.1058H15.8654C16.0566 16.1058 16.2401 16.1818 16.3753 16.317C16.5106 16.4522 16.5865 16.6357 16.5865 16.8269C16.5865 17.0182 16.5106 17.2016 16.3753 17.3369C16.2401 17.4721 16.0566 17.5481 15.8654 17.5481H9.13461C8.94334 17.5481 8.75992 17.4721 8.62467 17.3369C8.48943 17.2016 8.41345 17.0182 8.41345 16.8269Z" fill="black"/>
<path fill-rule="evenodd" clip-rule="evenodd" d="M5.28845 5.28846C5.28845 4.22885 6.15191 3.36539 7.21153 3.36539H13.6442C14.1846 3.36539 14.6942 3.59423 15.0529 3.97212L15.0586 3.97885L19.2048 8.5C19.55 8.86827 19.7115 9.35 19.7115 9.80769V19.7115C19.7115 20.7712 18.8481 21.6346 17.7885 21.6346H7.21153C6.15191 21.6346 5.28845 20.7712 5.28845 19.7115V5.28846ZM13.6433 5.28846H7.21153V19.7115H17.7885V9.8L13.6577 5.29519L13.6548 5.29423L13.6433 5.28846Z" fill="black"/>
<path fill-rule="evenodd" clip-rule="evenodd" d="M13.6442 3.36539C13.8992 3.36539 14.1438 3.46669 14.3241 3.64702C14.5045 3.82734 14.6058 4.07191 14.6058 4.32693V8.84616H18.75C19.005 8.84616 19.2496 8.94746 19.4299 9.12778C19.6102 9.30811 19.7115 9.55268 19.7115 9.80769C19.7115 10.0627 19.6102 10.3073 19.4299 10.4876C19.2496 10.6679 19.005 10.7692 18.75 10.7692H13.6442C13.3892 10.7692 13.1446 10.6679 12.9643 10.4876C12.784 10.3073 12.6827 10.0627 12.6827 9.80769V4.32693C12.6827 4.07191 12.784 3.82734 12.9643 3.64702C13.1446 3.46669 13.3892 3.36539 13.6442 3.36539Z" fill="black"/>
</mask>
<g mask="url(#mask0_558_891)">
<path d="M12.5 25C19.4036 25 25 19.4036 25 12.5C25 5.59644 19.4036 0 12.5 0C5.59644 0 0 5.59644 0 12.5C0 19.4036 5.59644 25 12.5 25Z" fill="#0A66C2"/>
</g>
</g>
<defs>
<clipPath id="clip0_558_891">
<rect width="25" height="25" fill="white"/>
</clipPath>
</defs>
</svg>
