<svg width="25" height="25" viewBox="0 0 25 25" fill="none" xmlns="http://www.w3.org/2000/svg">
<path fill-rule="evenodd" clip-rule="evenodd" d="M21.3976 5.01247C21.4486 5.20476 21.4482 5.40709 21.3964 5.59917C21.3446 5.79126 21.2432 5.96635 21.1024 6.10693L19.0974 8.11306C19.7277 8.75349 20.0793 9.61701 20.0758 10.5155C20.0722 11.414 19.7138 12.2748 19.0785 12.9102C18.4432 13.5456 17.5826 13.9043 16.6841 13.908C15.7855 13.9118 14.9219 13.5604 14.2814 12.9303L12.2741 14.9375C12.1335 15.0782 11.9584 15.1794 11.7663 15.2312C11.5743 15.2829 11.372 15.2832 11.1798 15.2322C10.9876 15.1811 10.8121 15.0805 10.671 14.9403C10.5299 14.8001 10.4281 14.6253 10.3758 14.4335L9.19848 10.1215L6.02181 13.2981L11.98 22.2366H14.7786C15.0797 22.2366 15.3685 22.3562 15.5814 22.5691C15.7944 22.782 15.914 23.0708 15.914 23.3719C15.914 23.673 15.7944 23.9618 15.5814 24.1747C15.3685 24.3877 15.0797 24.5073 14.7786 24.5073H7.96664C7.66553 24.5073 7.37675 24.3877 7.16384 24.1747C6.95092 23.9618 6.83131 23.673 6.83131 23.3719C6.83131 23.0708 6.95092 22.782 7.16384 22.5691C7.37675 22.3562 7.66553 22.2366 7.96664 22.2366H9.24957L4.13149 14.5583C3.84021 14.1215 3.70931 13.5973 3.76106 13.0748C3.81281 12.5523 4.04401 12.064 4.41532 11.6928L8.50933 7.59875L7.96437 5.60284C7.9118 5.40974 7.91121 5.20619 7.96265 5.01279C8.01409 4.81939 8.11573 4.64303 8.25728 4.50157L10.6653 2.09239C10.8069 1.95104 10.9833 1.8496 11.1767 1.79836C11.3701 1.74713 11.5736 1.7479 11.7666 1.80061L20.5984 4.20751C20.7903 4.25999 20.965 4.36198 21.1051 4.50325C21.2451 4.64452 21.3468 4.82013 21.3976 5.01247ZM15.8844 11.3249C16.0986 11.5317 16.3854 11.6462 16.683 11.6436C16.9807 11.641 17.2655 11.5216 17.476 11.3111C17.6865 11.1006 17.8059 10.8158 17.8085 10.5181C17.8111 10.2205 17.6966 9.93368 17.4898 9.71956L15.8844 11.3249ZM11.8052 4.16437L10.3293 5.6403L12.0493 11.9482L18.1131 5.88554L11.8052 4.16437Z" fill="#012D49"/>
</svg>
