<svg width="55" height="55" viewBox="0 0 55 55" fill="none" xmlns="http://www.w3.org/2000/svg">
<path d="M41.4218 3.56125L50.985 13.53V51.4388H15.2607V51.5625H51.107V13.6555L41.4218 3.56125Z" fill="#909090"/>
<path d="M41.3032 3.4375H15.1387V51.4388H50.9849V13.5317L41.3032 3.4375Z" fill="#F4F4F4"/>
<path d="M14.8754 6.01562H3.89258V17.7495H38.4395V6.01562H14.8754Z" fill="#7A7B7C"/>
<path d="M38.6236 17.5501H4.11621V5.80765H38.6236V17.5501Z" fill="#DD2025"/>
<path d="M15.5579 7.7928H13.3115V16.0428H15.0784V13.2601L15.4686 13.2825C15.8478 13.2773 16.2235 13.2093 16.5806 13.0814C16.8945 12.9748 17.1829 12.8045 17.4279 12.5812C17.6791 12.3706 17.8765 12.1031 18.0037 11.8009C18.1777 11.3003 18.2393 10.7675 18.1842 10.2403C18.1744 9.86364 18.1083 9.49056 17.9882 9.13343C17.88 8.87529 17.7191 8.64258 17.5158 8.45021C17.3124 8.25783 17.0712 8.11002 16.8075 8.01624C16.5801 7.93203 16.3445 7.87212 16.1045 7.83749C15.9232 7.80797 15.7399 7.79303 15.5562 7.7928M15.2314 11.7356H15.0784V9.19187H15.4101C15.5565 9.18131 15.7034 9.20378 15.84 9.25763C15.9765 9.31148 16.0992 9.39532 16.199 9.50296C16.4058 9.7797 16.5163 10.1166 16.5136 10.462C16.5136 10.8848 16.5136 11.2681 16.132 11.538C15.8572 11.6893 15.5442 11.7591 15.2314 11.7356ZM21.5409 7.77046C21.3501 7.77046 21.1645 7.78421 21.0339 7.78937L20.6248 7.79968H19.2842V16.0497H20.862C21.4649 16.0652 22.065 15.963 22.6289 15.7489C23.0828 15.5696 23.4846 15.2795 23.7976 14.905C24.1043 14.5288 24.3233 14.0891 24.4387 13.6176C24.5743 13.0847 24.6401 12.5364 24.6346 11.9866C24.6683 11.3371 24.618 10.6861 24.4851 10.0495C24.3579 9.58149 24.1224 9.14993 23.7976 8.78968C23.5429 8.49837 23.2296 8.2641 22.8781 8.10218C22.577 7.96262 22.2602 7.85989 21.9345 7.79624C21.805 7.77501 21.6738 7.76523 21.5426 7.76702M21.2298 14.5337H21.0579V9.26749H21.0803C21.4346 9.22652 21.7932 9.29046 22.1115 9.4514C22.3447 9.63758 22.5347 9.87215 22.6684 10.1389C22.8127 10.4196 22.8959 10.7277 22.9125 11.043C22.9279 11.4211 22.9125 11.7305 22.9125 11.9866C22.9188 12.2815 22.8998 12.5765 22.8557 12.8683C22.8017 13.1674 22.7038 13.457 22.5653 13.7276C22.4088 13.98 22.195 14.192 21.9414 14.3464C21.7295 14.4839 21.4782 14.5479 21.2264 14.5286M29.9576 7.79968H25.7811V16.0497H27.5479V12.7772H29.7823V11.2441H27.5479V9.3328H29.9542V7.79968" fill="#464648"/>
<path d="M37.4357 34.8133C37.4357 34.8133 42.9151 33.8198 42.9151 35.6916C42.9151 37.5633 39.5205 36.8019 37.4357 34.8133ZM33.3846 34.9559C32.5139 35.1478 31.6654 35.4295 30.8529 35.7964L31.5404 34.2495C32.2279 32.7027 32.9412 30.5938 32.9412 30.5938C33.7595 31.9758 34.7141 33.2725 35.7908 34.4644C34.9803 34.5851 34.177 34.7504 33.3846 34.9594V34.9559ZM31.2155 23.7841C31.2155 22.153 31.7432 21.7078 32.154 21.7078C32.5647 21.7078 33.0271 21.9055 33.0426 23.3217C32.9085 24.7458 32.6104 26.1496 32.154 27.5052C31.5267 26.3678 31.2029 25.0881 31.2138 23.7892L31.2155 23.7841ZM23.2251 41.8584C21.5441 40.853 26.7502 37.7575 27.6938 37.6578C27.6887 37.6595 24.9851 42.9103 23.2251 41.8584ZM44.5152 35.9133C44.498 35.7414 44.3433 33.8388 40.9574 33.9195C39.546 33.8948 38.1352 33.9943 36.7413 34.2169C35.3902 32.8569 34.2271 31.3222 33.2832 29.6536C33.8775 27.9336 34.2377 26.1415 34.354 24.3255C34.3041 22.263 33.8108 21.0805 32.2296 21.0977C30.6483 21.1148 30.418 22.4984 30.626 24.5575C30.8295 25.9412 31.2138 27.2922 31.769 28.5759C31.769 28.5759 31.0385 30.8498 30.0726 33.1117C29.1066 35.3736 28.4466 36.5595 28.4466 36.5595C26.7667 37.1057 25.1854 37.9182 23.763 38.9658C22.3468 40.2841 21.771 41.2964 22.5169 42.3088C23.1597 43.1819 25.4096 43.3795 27.4205 40.7447C28.4872 39.3825 29.4632 37.9517 30.3424 36.4616C30.3424 36.4616 33.4087 35.6211 34.3626 35.3908C35.3165 35.1605 36.4697 34.9783 36.4697 34.9783C36.4697 34.9783 39.2696 37.7953 41.9697 37.6956C44.6699 37.5959 44.5393 36.0817 44.5221 35.9167" fill="#DD2025"/>
<path d="M41.1709 3.56985V13.6641H50.8526L41.1709 3.56985Z" fill="#909090"/>
<path d="M41.3037 3.4375V13.5317H50.9854L41.3037 3.4375Z" fill="#F4F4F4"/>
<path d="M15.4261 7.66048H13.1797V15.9105H14.9534V13.1295L15.3453 13.1519C15.7245 13.1467 16.1003 13.0787 16.4573 12.9508C16.7712 12.8442 17.0597 12.6739 17.3047 12.4506C17.554 12.2394 17.7496 11.972 17.8753 11.6703C18.0493 11.1697 18.1109 10.6368 18.0558 10.1097C18.046 9.73304 17.9799 9.35996 17.8598 9.00282C17.7516 8.74468 17.5907 8.51198 17.3874 8.3196C17.184 8.12723 16.9428 7.97942 16.6791 7.88564C16.4507 7.80061 16.2139 7.74011 15.9727 7.70517C15.7914 7.67565 15.608 7.6607 15.4244 7.66048M15.0995 11.6033H14.9466V9.05954H15.28C15.4264 9.04898 15.5733 9.07146 15.7099 9.12531C15.8464 9.17915 15.9691 9.26299 16.0689 9.37064C16.2757 9.64738 16.3862 9.98424 16.3834 10.3297C16.3834 10.7525 16.3834 11.1358 16.0019 11.4056C15.7271 11.557 15.4141 11.6251 15.1012 11.6016M21.4091 7.63814C21.2183 7.63814 21.0327 7.65189 20.902 7.65704L20.4981 7.66735H19.1575V15.9174H20.7353C21.3382 15.9329 21.9384 15.8307 22.5022 15.6166C22.9561 15.4373 23.358 15.1472 23.6709 14.7727C23.9776 14.3965 24.1967 13.9567 24.312 13.4853C24.4476 12.9524 24.5135 12.4041 24.508 11.8542C24.5416 11.2048 24.4914 10.5538 24.3584 9.9172C24.2312 9.44917 23.9957 9.01761 23.6709 8.65736C23.4162 8.36604 23.1029 8.13177 22.7514 7.96985C22.4503 7.83029 22.1335 7.72757 21.8078 7.66392C21.6783 7.64269 21.5472 7.63291 21.4159 7.6347M21.1031 14.4014H20.9312V9.13517H20.9536C21.3079 9.09419 21.6665 9.15814 21.9848 9.31907C22.218 9.50526 22.408 9.73982 22.5417 10.0066C22.686 10.2873 22.7692 10.5954 22.7858 10.9106C22.8012 11.2888 22.7858 11.5981 22.7858 11.8542C22.7921 12.1492 22.7732 12.4442 22.7291 12.7359C22.675 13.0351 22.5771 13.3247 22.4386 13.5953C22.2821 13.8477 22.0684 14.0597 21.8147 14.2141C21.6028 14.3516 21.3516 14.4156 21.0997 14.3963M29.8258 7.66735H25.6492V15.9174H27.4161V12.6449H29.6505V11.1117H27.4161V9.20048H29.8223V7.66735" fill="white"/>
</svg>
