<svg width="50" height="50" viewBox="0 0 50 50" fill="none" xmlns="http://www.w3.org/2000/svg">
<path d="M37.6563 3.23755L46.3501 12.3V46.7625H13.8735V46.875H46.461V12.4141L37.6563 3.23755Z" fill="#909090"/>
<path d="M37.5486 3.125H13.7627V46.7625H46.3502V12.3016L37.5486 3.125Z" fill="#F4F4F4"/>
<path d="M13.5234 5.46875H3.53906V16.1359H34.9453V5.46875H13.5234Z" fill="#7A7B7C"/>
<path d="M35.1125 15.9548H3.74219V5.27979H35.1125V15.9548Z" fill="#DD2025"/>
<path d="M14.1438 7.08442H12.1016V14.5844H13.7078V12.0547L14.0625 12.075C14.4073 12.0703 14.7489 12.0085 15.0734 11.8922C15.3588 11.7953 15.621 11.6405 15.8438 11.4375C16.0721 11.246 16.2516 11.0029 16.3672 10.7282C16.5254 10.273 16.5814 9.78864 16.5312 9.30942C16.5223 8.967 16.4623 8.62784 16.3531 8.30317C16.2547 8.06849 16.1084 7.85694 15.9236 7.68206C15.7388 7.50717 15.5194 7.3728 15.2797 7.28754C15.073 7.21099 14.8588 7.15652 14.6406 7.12504C14.4758 7.09821 14.3092 7.08462 14.1422 7.08442M13.8469 10.6688H13.7078V8.35629H14.0094C14.1425 8.34669 14.276 8.36713 14.4002 8.41608C14.5243 8.46503 14.6358 8.54125 14.7266 8.6391C14.9146 8.89069 15.015 9.19692 15.0125 9.51098C15.0125 9.89535 15.0125 10.2438 14.6656 10.4891C14.4158 10.6267 14.1313 10.6902 13.8469 10.6688ZM19.5828 7.0641C19.4094 7.0641 19.2406 7.0766 19.1219 7.08129L18.75 7.09067H17.5313V14.5907H18.9656C19.5137 14.6048 20.0593 14.5119 20.5719 14.3172C20.9846 14.1543 21.3498 13.8905 21.6344 13.55C21.9132 13.2081 22.1123 12.8083 22.2172 12.3797C22.3404 11.8952 22.4003 11.3968 22.3953 10.8969C22.4259 10.3065 22.3802 9.71467 22.2594 9.13598C22.1437 8.71049 21.9296 8.31817 21.6344 7.99067C21.4028 7.72584 21.118 7.51286 20.7984 7.36567C20.5247 7.23879 20.2367 7.14541 19.9406 7.08754C19.8229 7.06824 19.7037 7.05935 19.5844 7.06098M19.3 13.2125H19.1437V8.42504H19.1641C19.4862 8.38779 19.8122 8.44593 20.1016 8.59223C20.3135 8.76149 20.4863 8.97473 20.6078 9.21723C20.739 9.47244 20.8146 9.75255 20.8297 10.0391C20.8438 10.3829 20.8297 10.6641 20.8297 10.8969C20.8355 11.1651 20.8182 11.4333 20.7781 11.6985C20.729 11.9705 20.64 12.2337 20.5141 12.4797C20.3718 12.7092 20.1775 12.9019 19.9469 13.0422C19.7542 13.1672 19.5258 13.2254 19.2969 13.2079M27.2344 7.09067H23.4375V14.5907H25.0437V11.6157H27.075V10.2219H25.0437V8.48442H27.2312V7.09067" fill="#464648"/>
<path d="M34.0326 31.6484C34.0326 31.6484 39.0138 30.7452 39.0138 32.4468C39.0138 34.1484 35.9279 33.4562 34.0326 31.6484ZM30.3498 31.778C29.5582 31.9525 28.7869 32.2085 28.0482 32.5421L28.6732 31.1359C29.2982 29.7296 29.9466 27.8124 29.9466 27.8124C30.6906 29.0689 31.5584 30.2477 32.5373 31.3312C31.8004 31.4409 31.0701 31.5912 30.3498 31.7812V31.778ZM28.3779 21.6218C28.3779 20.139 28.8576 19.7343 29.231 19.7343C29.6044 19.7343 30.0248 19.914 30.0388 21.2015C29.917 22.4961 29.6459 23.7723 29.231 25.0046C28.6607 23.9707 28.3664 22.8072 28.3763 21.6265L28.3779 21.6218ZM21.1138 38.053C19.5857 37.139 24.3185 34.3249 25.1763 34.2343C25.1716 34.2359 22.7138 39.0093 21.1138 38.053ZM40.4685 32.6484C40.4529 32.4921 40.3123 30.7624 37.2341 30.8359C35.9511 30.8134 34.6685 30.9038 33.4013 31.1062C32.173 29.8698 31.1157 28.4746 30.2576 26.9577C30.7979 25.3941 31.1253 23.7649 31.231 22.114C31.1857 20.239 30.7373 19.164 29.2998 19.1796C27.8623 19.1952 27.6529 20.453 27.8419 22.3249C28.027 23.5828 28.3763 24.811 28.881 25.978C28.881 25.978 28.2169 28.0452 27.3388 30.1015C26.4607 32.1577 25.8607 33.2359 25.8607 33.2359C24.3335 33.7324 22.8959 34.471 21.6029 35.4234C20.3154 36.6218 19.7919 37.5421 20.4701 38.4624C21.0544 39.2562 23.0998 39.4359 24.9279 37.0405C25.8976 35.8022 26.7849 34.5014 27.5841 33.1468C27.5841 33.1468 30.3716 32.3827 31.2388 32.1734C32.106 31.964 33.1544 31.7984 33.1544 31.7984C33.1544 31.7984 35.6998 34.3593 38.1544 34.2687C40.6091 34.178 40.4904 32.8015 40.4748 32.6515" fill="#DD2025"/>
<path d="M37.4282 3.24536V12.4219H46.2298L37.4282 3.24536Z" fill="#909090"/>
<path d="M37.5483 3.125V12.3016H46.3499L37.5483 3.125Z" fill="#F4F4F4"/>
<path d="M14.0236 6.96406H11.9814V14.4641H13.5939V11.9359L13.9502 11.9562C14.295 11.9515 14.6365 11.8897 14.9611 11.7734C15.2465 11.6765 15.5087 11.5217 15.7314 11.3187C15.9581 11.1267 16.1359 10.8836 16.2502 10.6094C16.4084 10.1542 16.4644 9.66984 16.4143 9.19062C16.4053 8.8482 16.3453 8.50904 16.2361 8.18437C16.1377 7.94969 15.9915 7.73815 15.8066 7.56326C15.6218 7.38837 15.4025 7.254 15.1627 7.16874C14.9551 7.09144 14.7398 7.03645 14.5205 7.00468C14.3557 6.97785 14.189 6.96426 14.0221 6.96406M13.7268 10.5484H13.5877V8.23593H13.8908C14.0239 8.22633 14.1575 8.24677 14.2816 8.29572C14.4057 8.34467 14.5173 8.42089 14.608 8.51874C14.796 8.77033 14.8964 9.07656 14.8939 9.39062C14.8939 9.77499 14.8939 10.1234 14.5471 10.3687C14.2972 10.5064 14.0127 10.5683 13.7283 10.5469M19.4627 6.94374C19.2893 6.94374 19.1205 6.95624 19.0018 6.96093L18.6346 6.97031H17.4158V14.4703H18.8502C19.3983 14.4844 19.9439 14.3915 20.4564 14.1969C20.8691 14.0339 21.2344 13.7701 21.5189 13.4297C21.7978 13.0877 21.9969 12.6879 22.1018 12.2594C22.225 11.7749 22.2849 11.2764 22.2799 10.7766C22.3105 10.1862 22.2648 9.59431 22.1439 9.01562C22.0283 8.59013 21.8142 8.19781 21.5189 7.87031C21.2874 7.60548 21.0025 7.3925 20.683 7.24531C20.4093 7.11843 20.1213 7.02505 19.8252 6.96718C19.7075 6.94788 19.5882 6.93899 19.4689 6.94062M19.1846 13.0922H19.0283V8.30468H19.0486C19.3708 8.26743 19.6967 8.32556 19.9861 8.47187C20.1981 8.64113 20.3708 8.85437 20.4924 9.09687C20.6236 9.35208 20.6992 9.63219 20.7143 9.91874C20.7283 10.2625 20.7143 10.5437 20.7143 10.7766C20.72 11.0447 20.7028 11.3129 20.6627 11.5781C20.6135 11.8501 20.5246 12.1133 20.3986 12.3594C20.2564 12.5888 20.0621 12.7815 19.8314 12.9219C19.6388 13.0469 19.4104 13.1051 19.1814 13.0875M27.1143 6.97031H23.3174V14.4703H24.9236V11.4953H26.9549V10.1016H24.9236V8.36406H27.1111V6.97031" fill="white"/>
</svg>
