<svg width="25" height="25" viewBox="0 0 25 25" fill="none" xmlns="http://www.w3.org/2000/svg">
<path d="M18.8279 1.61877L23.1748 6.15002V23.3813H6.93652V23.4375H23.2303V6.20706L18.8279 1.61877Z" fill="#909090"/>
<path d="M18.7738 1.5625H6.88086V23.3813H23.1746V6.15078L18.7738 1.5625Z" fill="#F4F4F4"/>
<path d="M6.76172 2.73438H1.76953V8.06797H17.4727V2.73438H6.76172Z" fill="#7A7B7C"/>
<path d="M17.5563 7.97733H1.87109V2.63983H17.5563V7.97733Z" fill="#DD2025"/>
<path d="M7.07188 3.54221H6.05078V7.29221H6.85391V6.02736L7.03125 6.03752C7.20363 6.03515 7.37443 6.00426 7.53672 5.94611C7.67939 5.89767 7.81052 5.82027 7.92188 5.71877C8.03606 5.62302 8.12578 5.50143 8.18359 5.36408C8.26269 5.13652 8.2907 4.89432 8.26562 4.65471C8.26117 4.4835 8.23115 4.31392 8.17656 4.15158C8.12737 4.03425 8.05422 3.92847 7.9618 3.84103C7.86938 3.75359 7.75972 3.6864 7.63984 3.64377C7.5365 3.60549 7.42939 3.57826 7.32031 3.56252C7.23792 3.5491 7.15458 3.54231 7.07109 3.54221M6.92344 5.3344H6.85391V4.17815H7.00469C7.07123 4.17335 7.13801 4.18356 7.20008 4.20804C7.26215 4.23251 7.31792 4.27062 7.36328 4.31955C7.45728 4.44534 7.5075 4.59846 7.50625 4.75549C7.50625 4.94768 7.50625 5.1219 7.33281 5.24455C7.2079 5.31336 7.06565 5.34509 6.92344 5.3344ZM9.79141 3.53205C9.70469 3.53205 9.62031 3.5383 9.56094 3.54065L9.375 3.54533H8.76562V7.29533H9.48281C9.75686 7.30238 10.0297 7.25594 10.2859 7.15861C10.4923 7.07713 10.6749 6.94525 10.8172 6.77502C10.9566 6.60405 11.0561 6.40415 11.1086 6.18986C11.1702 5.94762 11.2001 5.69841 11.1977 5.44846C11.2129 5.15327 11.1901 4.85734 11.1297 4.56799C11.0718 4.35525 10.9648 4.15908 10.8172 3.99533C10.7014 3.86292 10.559 3.75643 10.3992 3.68283C10.2624 3.6194 10.1184 3.5727 9.97031 3.54377C9.91144 3.53412 9.85184 3.52968 9.79219 3.53049M9.65 6.60627H9.57187V4.21252H9.58203C9.7431 4.1939 9.90608 4.22296 10.0508 4.29611C10.1568 4.38075 10.2431 4.48736 10.3039 4.60861C10.3695 4.73622 10.4073 4.87627 10.4148 5.01955C10.4219 5.19143 10.4148 5.33205 10.4148 5.44846C10.4177 5.58254 10.4091 5.71663 10.3891 5.84924C10.3645 5.98523 10.32 6.11685 10.257 6.23986C10.1859 6.35459 10.0887 6.45094 9.97344 6.52111C9.87712 6.58362 9.76292 6.61272 9.64844 6.60393M13.6172 3.54533H11.7187V7.29533H12.5219V5.80783H13.5375V5.11096H12.5219V4.24221H13.6156V3.54533" fill="#464648"/>
<path d="M17.016 15.8242C17.016 15.8242 19.5067 15.3727 19.5067 16.2235C19.5067 17.0742 17.9637 16.7281 17.016 15.8242ZM15.1746 15.8891C14.7789 15.9763 14.3932 16.1043 14.0239 16.2711L14.3364 15.568C14.6489 14.8649 14.9731 13.9063 14.9731 13.9063C15.345 14.5345 15.779 15.1239 16.2684 15.6656C15.9 15.7205 15.5348 15.7956 15.1746 15.8906V15.8891ZM14.1887 10.811C14.1887 10.0696 14.4285 9.86721 14.6153 9.86721C14.802 9.86721 15.0121 9.95705 15.0192 10.6008C14.9582 11.2481 14.8227 11.8862 14.6153 12.5024C14.3301 11.9854 14.183 11.4037 14.1879 10.8133L14.1887 10.811ZM10.5567 19.0266C9.79261 18.5696 12.159 17.1625 12.5879 17.1172C12.5856 17.118 11.3567 19.5047 10.5567 19.0266ZM20.234 16.3242C20.2262 16.2461 20.1559 15.3813 18.6168 15.418C17.9753 15.4067 17.334 15.452 16.7004 15.5531C16.0863 14.935 15.5576 14.2374 15.1285 13.4789C15.3987 12.6971 15.5624 11.8825 15.6153 11.0571C15.5926 10.1196 15.3684 9.58205 14.6496 9.58987C13.9309 9.59768 13.8262 10.2266 13.9207 11.1625C14.0133 11.7915 14.1879 12.4056 14.4403 12.9891C14.4403 12.9891 14.1082 14.0227 13.6692 15.0508C13.2301 16.0789 12.9301 16.618 12.9301 16.618C12.1665 16.8663 11.4477 17.2355 10.8012 17.7117C10.1574 18.311 9.89573 18.7711 10.2348 19.2313C10.527 19.6281 11.5496 19.718 12.4637 18.5203C12.9485 17.9011 13.3922 17.2508 13.7918 16.5735C13.7918 16.5735 15.1856 16.1914 15.6192 16.0867C16.0528 15.9821 16.577 15.8992 16.577 15.8992C16.577 15.8992 17.8496 17.1797 19.077 17.1344C20.3043 17.0891 20.2449 16.4008 20.2371 16.3258" fill="#DD2025"/>
<path d="M18.7139 1.62268V6.21096H23.1146L18.7139 1.62268Z" fill="#909090"/>
<path d="M18.7744 1.5625V6.15078H23.1752L18.7744 1.5625Z" fill="#F4F4F4"/>
<path d="M7.01133 3.48203H5.99023V7.23203H6.79648V5.96797L6.97461 5.97812C7.14699 5.97575 7.31778 5.94486 7.48008 5.88672C7.62275 5.83827 7.75388 5.76087 7.86523 5.65937C7.97857 5.56336 8.06747 5.44179 8.12461 5.30468C8.20371 5.07712 8.23171 4.83492 8.20664 4.59531C8.20219 4.4241 8.17217 4.25452 8.11758 4.09218C8.06838 3.97485 7.99524 3.86907 7.90282 3.78163C7.8104 3.69419 7.70074 3.627 7.58086 3.58437C7.47704 3.54572 7.3694 3.51822 7.25977 3.50234C7.17737 3.48892 7.09403 3.48213 7.01055 3.48203M6.86289 5.27422H6.79336V4.11797H6.94492C7.01147 4.11317 7.07824 4.12338 7.14031 4.14786C7.20238 4.17233 7.25815 4.21044 7.30352 4.25937C7.39751 4.38516 7.44773 4.53828 7.44648 4.69531C7.44648 4.8875 7.44648 5.06172 7.27305 5.18437C7.14813 5.25318 7.00588 5.28413 6.86367 5.27343M9.73086 3.47187C9.64414 3.47187 9.55977 3.47812 9.50039 3.48047L9.3168 3.48515H8.70742V7.23515H9.42461C9.69866 7.2422 9.97145 7.19576 10.2277 7.09843C10.4341 7.01695 10.6167 6.88507 10.759 6.71484C10.8984 6.54387 10.9979 6.34397 11.0504 6.12968C11.112 5.88744 11.1419 5.63822 11.1395 5.38828C11.1547 5.09309 11.1319 4.79716 11.0715 4.50781C11.0136 4.29507 10.9066 4.0989 10.759 3.93515C10.6432 3.80274 10.5008 3.69625 10.341 3.62265C10.2042 3.55921 10.0602 3.51252 9.91211 3.48359C9.85324 3.47394 9.79363 3.4695 9.73398 3.47031M9.5918 6.54609H9.51367V4.15234H9.52383C9.68489 4.13372 9.84788 4.16278 9.99258 4.23593C10.0986 4.32056 10.1849 4.42718 10.2457 4.54843C10.3113 4.67604 10.3491 4.81609 10.3566 4.95937C10.3637 5.13125 10.3566 5.27187 10.3566 5.38828C10.3595 5.52236 10.3509 5.65645 10.3309 5.78906C10.3063 5.92505 10.2618 6.05667 10.1988 6.17968C10.1277 6.29441 10.0305 6.39076 9.91523 6.46093C9.81892 6.52344 9.70472 6.55254 9.59023 6.54375M13.5566 3.48515H11.6582V7.23515H12.4613V5.74765H13.477V5.05078H12.4613V4.18203H13.5551V3.48515" fill="white"/>
</svg>
