<svg width="40" height="40" viewBox="0 0 40 40" fill="none" xmlns="http://www.w3.org/2000/svg">
<path d="M24.2604 25.9134L23.5021 26.7134C23.5021 26.7134 21.6971 28.6117 16.7721 23.4267C11.8471 18.2417 13.6521 16.3434 13.6521 16.3434L14.1304 15.8384C15.3071 14.5984 15.4187 12.6084 14.3904 11.155L12.2904 8.18337C11.0171 6.38337 8.55874 6.14671 7.10041 7.68171L4.48541 10.4334C3.76374 11.195 3.28041 12.18 3.33874 13.275C3.48874 16.075 4.68541 22.0967 11.3587 29.125C18.4371 36.575 25.0787 36.8717 27.7937 36.6034C28.6537 36.52 29.4004 36.055 30.0021 35.4217L32.3687 32.9284C33.9687 31.245 33.5187 28.3617 31.4721 27.185L28.2887 25.3517C26.9454 24.58 25.3104 24.8067 24.2604 25.9117" fill="#282C2D"/>
<path fill-rule="evenodd" clip-rule="evenodd" d="M36.6667 11.6667C36.6669 13.0857 36.3048 14.4812 35.6146 15.7211C34.9245 16.961 33.9292 18.0041 32.723 18.7515C31.5168 19.499 30.1398 19.9261 28.7223 19.9923C27.3048 20.0586 25.894 19.7618 24.6233 19.13C24.3286 18.9779 23.9885 18.9382 23.6667 19.0183L21.8117 19.515C21.628 19.5642 21.4346 19.5642 21.251 19.5149C21.0673 19.4657 20.8999 19.369 20.7654 19.2346C20.631 19.1001 20.5343 18.9327 20.4851 18.749C20.4359 18.5654 20.4358 18.372 20.485 18.1883L20.9817 16.3333C21.0618 16.0115 21.0221 15.6715 20.87 15.3767C20.3112 14.2517 20.014 13.015 20.0005 11.759C19.987 10.5029 20.2576 9.26011 20.7921 8.12342C21.3266 6.98672 22.1112 5.98556 23.0872 5.19479C24.0631 4.40402 25.2052 3.84411 26.428 3.55692C27.6508 3.26973 28.9228 3.26268 30.1487 3.53632C31.3746 3.80995 32.5228 4.35718 33.5075 5.13709C34.4921 5.917 35.2877 6.90941 35.8348 8.04012C36.3819 9.17083 36.6662 10.4106 36.6667 11.6667ZM28.3333 8.02168C29.1967 8.02168 29.8967 8.72168 29.8967 9.58335V10.105H30.4167C30.8311 10.105 31.2285 10.2696 31.5215 10.5627C31.8145 10.8557 31.9792 11.2531 31.9792 11.6675C31.9792 12.0819 31.8145 12.4793 31.5215 12.7724C31.2285 13.0654 30.8311 13.23 30.4167 13.23H29.8967V13.75C29.8967 14.1644 29.732 14.5618 29.439 14.8549C29.146 15.1479 28.7486 15.3125 28.3342 15.3125C27.9198 15.3125 27.5223 15.1479 27.2293 14.8549C26.9363 14.5618 26.7717 14.1644 26.7717 13.75V13.23H26.25C25.8356 13.23 25.4382 13.0654 25.1451 12.7724C24.8521 12.4793 24.6875 12.0819 24.6875 11.6675C24.6875 11.2531 24.8521 10.8557 25.1451 10.5627C25.4382 10.2696 25.8356 10.105 26.25 10.105H26.7717V9.58335C26.7717 8.72002 27.4717 8.02168 28.3333 8.02168Z" fill="#282C2D"/>
</svg>
