<svg width="50" height="50" viewBox="0 0 50 50" fill="none" xmlns="http://www.w3.org/2000/svg">
<path d="M5.85342 10.825C5.76084 8.16294 7.83467 5.70825 10.6382 5.70825H39.3647C42.1683 5.70825 44.2421 8.16294 44.1495 10.825C44.0604 13.3821 44.1761 16.6946 45.0097 19.3954C45.846 22.1047 47.2561 23.8168 49.5659 24.0372V26.5321C47.2561 26.7524 45.846 28.4645 45.0097 31.1739C44.1761 33.8747 44.0604 37.1872 44.1495 39.7442C44.2421 42.4063 42.1683 44.8606 39.3647 44.8606H10.6382C7.83467 44.8606 5.76084 42.4059 5.85342 39.7442C5.94248 37.1872 5.82685 33.8747 4.99287 31.1739C4.15693 28.4649 2.74287 26.7524 0.433105 26.5321V24.0372C2.74287 23.8172 4.15693 22.1047 4.99287 19.3954C5.82685 16.6946 5.94209 13.3821 5.85342 10.825Z" fill="url(#paint0_linear_1257_30)"/>
<g filter="url(#filter0_d_1257_30)">
<path d="M26.2147 35.8345C30.7534 35.8345 33.4883 33.6122 33.4883 29.9468C33.4883 27.1761 31.5369 25.1703 28.6392 24.8527V24.7373C30.7681 24.391 32.4387 22.414 32.4387 20.2061C32.4387 17.0602 29.9551 15.011 26.1704 15.011H17.6548V35.8345H26.2147ZM20.9664 17.6518H25.3721C27.7671 17.6518 29.1271 18.7197 29.1271 20.6534C29.1271 22.717 27.5453 23.8714 24.6772 23.8714H20.9664V17.6518ZM20.9664 33.1937V26.3391H25.3424C28.4766 26.3391 30.1028 27.4935 30.1028 29.7447C30.1028 31.9959 28.521 33.1937 25.5346 33.1937H20.9664Z" fill="url(#paint1_linear_1257_30)"/>
</g>
<defs>
<filter id="filter0_d_1257_30" x="17.1635" y="14.6425" width="16.8161" height="21.8061" filterUnits="userSpaceOnUse" color-interpolation-filters="sRGB">
<feFlood flood-opacity="0" result="BackgroundImageFix"/>
<feColorMatrix in="SourceAlpha" type="matrix" values="0 0 0 0 0 0 0 0 0 0 0 0 0 0 0 0 0 0 127 0" result="hardAlpha"/>
<feOffset dy="0.12283"/>
<feGaussianBlur stdDeviation="0.24566"/>
<feColorMatrix type="matrix" values="0 0 0 0 0 0 0 0 0 0 0 0 0 0 0 0 0 0 0.15 0"/>
<feBlend mode="normal" in2="BackgroundImageFix" result="effect1_dropShadow_1257_30"/>
<feBlend mode="normal" in="SourceGraphic" in2="effect1_dropShadow_1257_30" result="shape"/>
</filter>
<linearGradient id="paint0_linear_1257_30" x1="7.73411" y1="6.74444" x2="50.6671" y2="40.8252" gradientUnits="userSpaceOnUse">
<stop stop-color="#9013FE"/>
<stop offset="1" stop-color="#6610F2"/>
</linearGradient>
<linearGradient id="paint1_linear_1257_30" x1="19.1529" y1="16.3813" x2="28.749" y2="32.6112" gradientUnits="userSpaceOnUse">
<stop stop-color="white"/>
<stop offset="1" stop-color="#F1E5FC"/>
</linearGradient>
</defs>
</svg>
