<svg width="30" height="30" viewBox="0 0 30 30" fill="none" xmlns="http://www.w3.org/2000/svg">
<circle cx="15" cy="15" r="15" fill="#3F4243"/>
<path d="M3.04581 22V8.18182H8.75391C9.78847 8.18182 10.6813 8.38423 11.4325 8.78906C12.1882 9.18939 12.7707 9.74941 13.18 10.4691C13.5894 11.1843 13.794 12.0165 13.794 12.9656C13.794 13.9192 13.5849 14.7536 13.1665 15.4688C12.7527 16.1795 12.1612 16.7305 11.392 17.1218C10.6229 17.5131 9.70975 17.7088 8.6527 17.7088H5.13068V15.0774H8.03196C8.53575 15.0774 8.95632 14.9897 9.29368 14.8143C9.63554 14.6388 9.89418 14.3937 10.0696 14.0788C10.245 13.7595 10.3327 13.3884 10.3327 12.9656C10.3327 12.5382 10.245 12.1694 10.0696 11.859C9.89418 11.5442 9.63554 11.3013 9.29368 11.1303C8.95182 10.9594 8.53125 10.8739 8.03196 10.8739H6.38565V22H3.04581ZM24.5085 12.6957C24.4321 12.4123 24.3196 12.1626 24.1712 11.9467C24.0227 11.7263 23.8406 11.5397 23.6246 11.3867C23.4087 11.2338 23.1613 11.1191 22.8825 11.0426C22.6036 10.9616 22.2977 10.9212 21.9648 10.9212C21.2946 10.9212 20.7144 11.0831 20.2241 11.407C19.7383 11.7308 19.3627 12.2031 19.0973 12.8239C18.8319 13.4401 18.6992 14.189 18.6992 15.0707C18.6992 15.9568 18.8274 16.7125 19.0838 17.3377C19.3402 17.9629 19.7113 18.4397 20.1971 18.7681C20.6829 19.0965 21.2721 19.2607 21.9648 19.2607C22.5766 19.2607 23.0939 19.1617 23.5167 18.9638C23.944 18.7614 24.2679 18.4757 24.4883 18.1069C24.7087 17.738 24.8189 17.304 24.8189 16.8047L25.4396 16.8789H22.0795V14.4432H28.0373V16.2717C28.0373 17.5086 27.7741 18.5679 27.2479 19.4496C26.7261 20.3312 26.0064 21.0082 25.0888 21.4805C24.1757 21.9528 23.1254 22.1889 21.9379 22.1889C20.6199 22.1889 19.4616 21.9033 18.4631 21.332C17.4645 20.7608 16.6863 19.9466 16.1286 18.8896C15.5708 17.828 15.2919 16.5685 15.2919 15.1112C15.2919 13.9776 15.4606 12.9723 15.7979 12.0952C16.1353 11.2135 16.6054 10.4669 17.2081 9.85511C17.8153 9.24337 18.517 8.78007 19.3132 8.4652C20.1139 8.15033 20.9753 7.9929 21.8974 7.9929C22.698 7.9929 23.4425 8.1076 24.1307 8.337C24.8234 8.56641 25.4351 8.89027 25.9659 9.30859C26.5012 9.72692 26.9353 10.224 27.2681 10.7997C27.601 11.3755 27.8079 12.0075 27.8889 12.6957H24.5085Z" fill="#DAA520"/>
</svg>
