<svg width="50" height="50" viewBox="0 0 50 50" fill="none" xmlns="http://www.w3.org/2000/svg">
<g clip-path="url(#clip0_1257_2)">
<path d="M47.2496 2.75039C45.4144 0.91513 43.2062 -0.00166615 40.6252 2.27305e-06H9.37485C6.79213 2.27305e-06 4.58398 0.916798 2.75039 2.75039C0.91513 4.58565 -0.00166615 6.7938 2.27305e-06 9.37485V40.6252C2.27305e-06 43.2079 0.916798 45.416 2.75039 47.2496C4.58565 49.0849 6.7938 50.0017 9.37485 50H16.6675C17.143 50 17.5009 49.9833 17.7411 49.9499C18.0209 49.8947 18.2735 49.7454 18.4569 49.527C18.6955 49.2767 18.8148 48.9139 18.8148 48.4384L18.7972 46.2235C18.7872 44.812 18.7822 43.6942 18.7822 42.87L18.0314 43.0001C17.5559 43.0869 16.9545 43.1253 16.227 43.1153C15.468 43.1008 14.7114 43.0246 13.9647 42.8875C13.1691 42.7432 12.4203 42.4083 11.7824 41.9115C11.1128 41.4052 10.6134 40.7068 10.3509 39.9094L10.0255 39.1586C9.75026 38.5669 9.40583 38.01 8.99945 37.4994C8.53229 36.8921 8.06013 36.48 7.58296 36.2631L7.35773 36.1004C7.20132 35.9871 7.05856 35.8561 6.93228 35.71C6.81166 35.5743 6.71288 35.4206 6.63947 35.2545C6.57441 35.101 6.62863 34.9759 6.80214 34.8791C6.97566 34.779 7.29099 34.7298 7.74814 34.7315L8.39882 34.8316C8.83261 34.9167 9.36901 35.1761 10.008 35.6099C10.6538 36.0502 11.1933 36.629 11.5872 37.3042C12.0877 38.1918 12.69 38.87 13.3941 39.3388C14.0998 39.806 14.8106 40.0395 15.5263 40.0395C16.2421 40.0395 16.861 39.9853 17.3833 39.8769C17.889 39.7721 18.3805 39.6074 18.8473 39.3864C19.0425 37.9332 19.5739 36.8153 20.4415 36.0328C19.3163 35.9216 18.2012 35.7259 17.1055 35.4472C16.0362 35.1539 15.0079 34.7276 14.0447 34.1784C13.0368 33.6296 12.1465 32.8882 11.4245 31.9961C10.7304 31.1285 10.1607 29.9898 9.7152 28.58C9.2714 27.1685 9.0495 25.5402 9.0495 23.6949C9.0495 21.0705 9.90624 18.8348 11.6197 16.9878C10.8189 15.0141 10.8948 12.8018 11.8474 10.3509C12.4781 10.154 13.4116 10.3 14.6479 10.7888C15.8842 11.2777 16.7901 11.6948 17.3657 12.0401C17.9413 12.3905 18.4027 12.6842 18.7497 12.9211C20.7841 12.3538 22.8868 12.0692 24.9988 12.0752C27.1477 12.0752 29.2315 12.3571 31.2503 12.9211L32.4866 12.1402C33.4376 11.5693 34.4406 11.09 35.4823 10.7087C36.6318 10.275 37.5111 10.1557 38.12 10.3509C39.0961 12.8034 39.182 15.0166 38.3778 16.9903C40.0929 18.8339 40.9505 21.0696 40.9505 23.6974C40.9505 25.5427 40.7278 27.1752 40.2823 28.595C39.8385 30.0165 39.2637 31.156 38.558 32.0136C37.8212 32.8921 36.9276 33.6262 35.9227 34.1784C34.8716 34.764 33.8514 35.1869 32.862 35.4472C31.7663 35.7267 30.6512 35.9233 29.526 36.0353C30.6522 37.0114 31.2161 38.5513 31.2178 40.6552V48.4384C31.2178 48.8054 31.272 49.1032 31.3805 49.3318C31.4311 49.4415 31.5032 49.5399 31.5927 49.6212C31.6821 49.7024 31.7869 49.7649 31.901 49.8048C32.1396 49.8915 32.3515 49.9449 32.5367 49.965C32.7219 49.9883 32.9871 49.9992 33.3325 49.9975H40.6252C43.2079 49.9975 45.416 49.0807 47.2496 47.2471C49.0832 45.4135 50 43.2054 50 40.6227V9.37485C50 6.79213 49.0849 4.58398 47.2496 2.75039Z" fill="black"/>
</g>
<defs>
<clipPath id="clip0_1257_2">
<rect width="50" height="50" fill="white"/>
</clipPath>
</defs>
</svg>
