<svg width="50" height="50" viewBox="0 0 50 50" fill="none" xmlns="http://www.w3.org/2000/svg">
<path d="M30.325 32.3917L29.3771 33.3917C29.3771 33.3917 27.1209 35.7646 20.9646 29.2834C14.8084 22.8021 17.0646 20.4292 17.0646 20.4292L17.6625 19.7979C19.1334 18.2479 19.2729 15.7604 17.9875 13.9438L15.3625 10.2292C13.7709 7.97919 10.6979 7.68335 8.87503 9.6021L5.60628 13.0417C4.70419 13.9938 4.10003 15.225 4.17294 16.5938C4.36044 20.0938 5.85628 27.6209 14.1979 36.4063C23.0459 45.7188 31.3479 46.0896 34.7417 45.7542C35.8167 45.65 36.75 45.0688 37.5021 44.2771L40.4604 41.1604C42.4604 39.0563 41.8979 35.4521 39.3396 33.9813L35.3604 31.6896C33.6813 30.725 31.6375 31.0084 30.325 32.3896" fill="#282C2D"/>
<path fill-rule="evenodd" clip-rule="evenodd" d="M45.8333 14.5833C45.8336 16.357 45.381 18.1015 44.5183 19.6513C43.6556 21.2012 42.4115 22.505 40.9037 23.4394C39.396 24.3737 37.6747 24.9076 35.9029 24.9904C34.1311 25.0732 32.3674 24.7021 30.7792 23.9125C30.4107 23.7224 29.9857 23.6727 29.5833 23.7729L27.2646 24.3937C27.035 24.4552 26.7933 24.4551 26.5637 24.3936C26.3342 24.3321 26.1249 24.2112 25.9568 24.0432C25.7887 23.8751 25.6679 23.6658 25.6063 23.4362C25.5448 23.2067 25.5448 22.965 25.6063 22.7354L26.2271 20.4166C26.3272 20.0143 26.2776 19.5893 26.0875 19.2208C25.389 17.8146 25.0175 16.2687 25.0006 14.6986C24.9837 13.1286 25.322 11.5751 25.9902 10.1542C26.6583 8.73334 27.639 7.48188 28.8589 6.49343C30.0789 5.50497 31.5065 4.80508 33.035 4.44609C34.5635 4.0871 36.1535 4.07829 37.6859 4.42034C39.2183 4.76238 40.6536 5.44642 41.8844 6.4213C43.1152 7.39619 44.1097 8.63671 44.7935 10.0501C45.4773 11.4635 45.8328 13.0132 45.8333 14.5833ZM35.4167 10.027C36.4958 10.027 37.3708 10.902 37.3708 11.9791V12.6312H38.0208C38.5388 12.6312 39.0356 12.837 39.4019 13.2033C39.7682 13.5695 39.974 14.0663 39.974 14.5843C39.974 15.1023 39.7682 15.5991 39.4019 15.9654C39.0356 16.3317 38.5388 16.5375 38.0208 16.5375H37.3708V17.1875C37.3708 17.7055 37.1651 18.2022 36.7988 18.5685C36.4325 18.9348 35.9357 19.1406 35.4177 19.1406C34.8997 19.1406 34.4029 18.9348 34.0366 18.5685C33.6704 18.2022 33.4646 17.7055 33.4646 17.1875V16.5375H32.8125C32.2945 16.5375 31.7977 16.3317 31.4314 15.9654C31.0652 15.5991 30.8594 15.1023 30.8594 14.5843C30.8594 14.0663 31.0652 13.5695 31.4314 13.2033C31.7977 12.837 32.2945 12.6312 32.8125 12.6312H33.4646V11.9791C33.4646 10.9 34.3396 10.027 35.4167 10.027Z" fill="#282C2D"/>
</svg>
