<svg width="24" height="24" viewBox="0 0 24 24" fill="none" xmlns="http://www.w3.org/2000/svg">
<path d="M20.4715 11.997C20.0358 11.3307 19.4433 10.7813 18.7459 10.3971C18.0486 10.0128 17.2676 9.80542 16.4715 9.79302C16.4595 9.44838 16.4156 9.10559 16.3405 8.76902C16.3135 8.63795 16.2604 8.51365 16.1844 8.40348C16.1085 8.29331 16.0112 8.1995 15.8983 8.12762C15.7854 8.05574 15.6593 8.00724 15.5273 7.98501C15.3953 7.96277 15.2603 7.96725 15.1301 7.99818C14.9999 8.02911 14.8772 8.08585 14.7693 8.16505C14.6615 8.24425 14.5706 8.3443 14.5021 8.45926C14.4336 8.57423 14.3889 8.70177 14.3706 8.83434C14.3523 8.9669 14.3607 9.10179 14.3955 9.23102C14.4397 9.42869 14.4672 9.62973 14.4775 9.83202C13.3621 9.97037 12.2681 10.2465 11.2205 10.654C11.2435 9.45002 11.2975 8.24702 11.4175 7.04702L11.4555 6.66502C12.6273 6.50589 13.7896 6.28391 14.9375 6.00002L15.0575 5.97002C15.1893 5.94278 15.3143 5.88921 15.4249 5.81253C15.5355 5.73586 15.6295 5.63764 15.7012 5.52378C15.7729 5.40991 15.821 5.28273 15.8424 5.14987C15.8638 5.017 15.8582 4.88118 15.8259 4.75053C15.7935 4.61989 15.7352 4.49712 15.6543 4.38957C15.5734 4.28202 15.4716 4.1919 15.355 4.12463C15.2385 4.05735 15.1095 4.01429 14.9759 3.99804C14.8423 3.98178 14.7068 3.99266 14.5775 4.03002L14.4555 4.06002C13.5335 4.29002 12.5995 4.46402 11.6615 4.61002L11.8125 3.10002C11.839 2.83612 11.7597 2.57251 11.5918 2.36715C11.5087 2.26547 11.4064 2.18116 11.2907 2.11902C11.175 2.05689 11.0482 2.01815 10.9175 2.00502C10.6536 1.97849 10.39 2.05789 10.1847 2.22573C9.97932 2.39358 9.84905 2.63613 9.82253 2.90002L9.62653 4.86002C8.69253 4.94302 7.75653 5.00002 6.81753 5.00002C6.55231 5.00002 6.29796 5.10537 6.11042 5.29291C5.92289 5.48045 5.81753 5.7348 5.81753 6.00002C5.81753 6.26523 5.92289 6.51959 6.11042 6.70712C6.29796 6.89466 6.55231 7.00002 6.81753 7.00002C7.68753 7.00002 8.55753 6.95402 9.42453 6.88602C9.27852 8.44765 9.21076 10.0156 9.22153 11.584C9.08753 11.657 8.95153 11.726 8.81853 11.804C8.13839 12.1935 7.48706 12.6313 6.86953 13.114L6.84753 13.132C5.84394 13.9052 4.95244 14.8139 4.19853 15.832C3.84861 16.316 3.65089 16.8933 3.63064 17.4902C3.61038 18.0871 3.76849 18.6764 4.08479 19.183C4.40109 19.6896 4.86121 20.0904 5.40639 20.3343C5.95157 20.5781 6.55706 20.6539 7.14553 20.552C8.13823 20.3638 9.09544 20.0217 9.98253 19.538C10.106 19.7321 10.2929 19.8775 10.5115 19.9494C10.73 20.0214 10.9667 20.0154 11.1814 19.9326C11.396 19.8498 11.5754 19.6952 11.689 19.4951C11.8026 19.295 11.8434 19.0618 11.8045 18.835C11.7795 18.69 11.7685 18.544 11.7465 18.398C12.2082 18.0408 12.647 17.655 13.0605 17.243C13.8771 16.4287 14.5835 15.5109 15.1615 14.513L15.2265 14.395C15.3452 14.185 15.4559 13.9733 15.5585 13.76C15.6112 13.6487 15.6615 13.5377 15.7095 13.427C15.8317 13.1528 15.9415 12.8731 16.0385 12.589L16.1285 12.302C16.1785 12.133 16.2295 11.965 16.2695 11.798L16.2745 11.78C16.7528 11.7735 17.2258 11.8808 17.6545 12.0929C18.0833 12.305 18.4555 12.6159 18.7405 13C19.7595 14.767 17.7775 17.977 14.3235 20.154C14.2124 20.2241 14.1162 20.3153 14.0404 20.4226C13.9646 20.5298 13.9106 20.6509 13.8816 20.779C13.8526 20.9071 13.8491 21.0397 13.8713 21.1692C13.8935 21.2986 13.941 21.4224 14.011 21.5335C14.0811 21.6446 14.1723 21.7408 14.2796 21.8167C14.3868 21.8925 14.508 21.9465 14.6361 21.9755C14.7642 22.0045 14.8967 22.008 15.0262 21.9858C15.1556 21.9636 15.2794 21.9161 15.3905 21.846C19.8895 19.01 22.0745 14.777 20.4715 11.997ZM6.79553 18.583C6.59994 18.6147 6.39935 18.5878 6.21897 18.5058C6.0386 18.4238 5.88649 18.2903 5.78177 18.1221C5.67704 17.9539 5.62437 17.7585 5.63038 17.5605C5.63639 17.3624 5.7008 17.1706 5.81553 17.009C6.46988 16.134 7.24067 15.3524 8.10653 14.686L8.13353 14.665C8.50148 14.3819 8.88328 14.1172 9.27753 13.872C9.33753 15.067 9.45053 16.258 9.60353 17.446C8.74627 17.9961 7.79402 18.3817 6.79553 18.583ZM14.1255 12C14.034 12.2654 13.9285 12.5257 13.8095 12.78C13.7529 12.9 13.6929 13.0193 13.6295 13.138C13.5329 13.3233 13.4292 13.508 13.3185 13.692C13.2339 13.832 13.1455 13.9713 13.0535 14.11C12.6408 14.7271 12.1692 15.3028 11.6455 15.829C11.5755 15.899 11.5025 15.962 11.4315 16.029C11.3229 14.9643 11.2525 13.897 11.2205 12.827C12.1583 12.3958 13.1458 12.0824 14.1605 11.894L14.1255 12Z" fill="#BC002D"/>
</svg>
