<svg width="198" height="198" viewBox="0 0 198 198" fill="none" xmlns="http://www.w3.org/2000/svg">
<circle cx="99" cy="99" r="99" fill="#124A9F"/>
<line x1="97.5" y1="99.4648" x2="97.5" y2="-7.62939e-06" stroke="white" stroke-width="3"/>
<line x1="192.88" y1="130.635" x2="96.9048" y2="98.8008" stroke="white" stroke-width="3"/>
<path d="M39.0621 83.2953H37.6622C37.6366 83.1142 37.5844 82.9534 37.5056 82.8127C37.4268 82.67 37.3256 82.5485 37.202 82.4484C37.0784 82.3483 36.9356 82.2716 36.7737 82.2183C36.6139 82.165 36.4403 82.1384 36.2528 82.1384C35.914 82.1384 35.6189 82.2226 35.3675 82.3909C35.116 82.5571 34.9211 82.8 34.7826 83.1196C34.6441 83.437 34.5748 83.8227 34.5748 84.2765C34.5748 84.7431 34.6441 85.1352 34.7826 85.4527C34.9232 85.7701 35.1192 86.0098 35.3707 86.1718C35.6221 86.3337 35.9129 86.4147 36.2432 86.4147C36.4285 86.4147 36.6001 86.3902 36.7577 86.3412C36.9175 86.2922 37.0592 86.2208 37.1828 86.127C37.3064 86.0311 37.4087 85.915 37.4896 85.7787C37.5727 85.6423 37.6302 85.4868 37.6622 85.312L39.0621 85.3184C39.0258 85.6189 38.9353 85.9086 38.7904 86.1877C38.6476 86.4647 38.4548 86.713 38.2119 86.9324C37.9712 87.1498 37.6835 87.3223 37.349 87.4502C37.0166 87.5759 36.6405 87.6387 36.2208 87.6387C35.637 87.6387 35.115 87.5066 34.6547 87.2424C34.1966 86.9782 33.8344 86.5958 33.5681 86.0951C33.3039 85.5944 33.1718 84.9882 33.1718 84.2765C33.1718 83.5627 33.306 82.9555 33.5745 82.4548C33.843 81.9541 34.2073 81.5727 34.6675 81.3106C35.1278 81.0464 35.6455 80.9143 36.2208 80.9143C36.6001 80.9143 36.9516 80.9676 37.2755 81.0741C37.6015 81.1806 37.8902 81.3362 38.1416 81.5407C38.393 81.7431 38.5976 81.9914 38.7552 82.2854C38.915 82.5794 39.0173 82.9161 39.0621 83.2953ZM42.2469 87.6451C41.7504 87.6451 41.3211 87.5397 40.9589 87.3287C40.5988 87.1157 40.3208 86.8195 40.1247 86.4402C39.9287 86.0588 39.8307 85.6167 39.8307 85.1139C39.8307 84.6068 39.9287 84.1636 40.1247 83.7843C40.3208 83.4029 40.5988 83.1068 40.9589 82.8958C41.3211 82.6828 41.7504 82.5762 42.2469 82.5762C42.7433 82.5762 43.1716 82.6828 43.5317 82.8958C43.8939 83.1068 44.173 83.4029 44.3691 83.7843C44.5651 84.1636 44.6631 84.6068 44.6631 85.1139C44.6631 85.6167 44.5651 86.0588 44.3691 86.4402C44.173 86.8195 43.8939 87.1157 43.5317 87.3287C43.1716 87.5397 42.7433 87.6451 42.2469 87.6451ZM42.2533 86.5904C42.4791 86.5904 42.6677 86.5265 42.819 86.3987C42.9703 86.2687 43.0843 86.0919 43.161 85.8681C43.2398 85.6444 43.2792 85.3898 43.2792 85.1043C43.2792 84.8188 43.2398 84.5642 43.161 84.3404C43.0843 84.1167 42.9703 83.9399 42.819 83.8099C42.6677 83.6799 42.4791 83.615 42.2533 83.615C42.0253 83.615 41.8335 83.6799 41.678 83.8099C41.5246 83.9399 41.4085 84.1167 41.3296 84.3404C41.2529 84.5642 41.2146 84.8188 41.2146 85.1043C41.2146 85.3898 41.2529 85.6444 41.3296 85.8681C41.4085 86.0919 41.5246 86.2687 41.678 86.3987C41.8335 86.5265 42.0253 86.5904 42.2533 86.5904ZM45.5484 87.5493V82.6402H46.8683V83.4967H46.9195C47.009 83.192 47.1592 82.9619 47.3701 82.8064C47.5811 82.6487 47.824 82.5699 48.0988 82.5699C48.167 82.5699 48.2405 82.5741 48.3193 82.5826C48.3982 82.5912 48.4674 82.6029 48.5271 82.6178V83.8259C48.4632 83.8067 48.3747 83.7897 48.2618 83.7748C48.1489 83.7598 48.0455 83.7524 47.9518 83.7524C47.7515 83.7524 47.5725 83.7961 47.4149 83.8834C47.2593 83.9686 47.1357 84.088 47.0441 84.2414C46.9546 84.3948 46.9099 84.5716 46.9099 84.7719V87.5493H45.5484ZM49.231 89.3902V82.6402H50.5733V83.4647H50.6341C50.6937 83.3326 50.78 83.1984 50.8929 83.062C51.008 82.9235 51.1571 82.8085 51.3404 82.7169C51.5258 82.6231 51.7559 82.5762 52.0307 82.5762C52.3887 82.5762 52.7189 82.67 53.0215 82.8575C53.324 83.0429 53.5659 83.323 53.747 83.698C53.9281 84.0709 54.0186 84.5386 54.0186 85.1011C54.0186 85.6487 53.9302 86.111 53.7534 86.4882C53.5787 86.8632 53.34 87.1476 53.0375 87.3415C52.737 87.5333 52.4004 87.6292 52.0275 87.6292C51.7633 87.6292 51.5385 87.5855 51.3532 87.4981C51.1699 87.4108 51.0197 87.301 50.9025 87.1689C50.7853 87.0347 50.6959 86.8994 50.6341 86.763H50.5925V89.3902H49.231ZM50.5637 85.0947C50.5637 85.3866 50.6042 85.6412 50.6852 85.8586C50.7662 86.0759 50.8834 86.2453 51.0368 86.3667C51.1902 86.486 51.3766 86.5457 51.5961 86.5457C51.8177 86.5457 52.0052 86.485 52.1586 86.3635C52.312 86.24 52.4281 86.0695 52.5069 85.8522C52.5879 85.6327 52.6284 85.3802 52.6284 85.0947C52.6284 84.8113 52.589 84.562 52.5101 84.3468C52.4313 84.1316 52.3152 83.9633 52.1618 83.8419C52.0084 83.7204 51.8198 83.6597 51.5961 83.6597C51.3745 83.6597 51.187 83.7183 51.0336 83.8355C50.8823 83.9527 50.7662 84.1189 50.6852 84.3341C50.6042 84.5493 50.5637 84.8028 50.5637 85.0947ZM57.1444 87.6451C56.6479 87.6451 56.2186 87.5397 55.8564 87.3287C55.4963 87.1157 55.2182 86.8195 55.0222 86.4402C54.8262 86.0588 54.7282 85.6167 54.7282 85.1139C54.7282 84.6068 54.8262 84.1636 55.0222 83.7843C55.2182 83.4029 55.4963 83.1068 55.8564 82.8958C56.2186 82.6828 56.6479 82.5762 57.1444 82.5762C57.6408 82.5762 58.0691 82.6828 58.4292 82.8958C58.7914 83.1068 59.0705 83.4029 59.2665 83.7843C59.4625 84.1636 59.5606 84.6068 59.5606 85.1139C59.5606 85.6167 59.4625 86.0588 59.2665 86.4402C59.0705 86.8195 58.7914 87.1157 58.4292 87.3287C58.0691 87.5397 57.6408 87.6451 57.1444 87.6451ZM57.1508 86.5904C57.3766 86.5904 57.5652 86.5265 57.7164 86.3987C57.8677 86.2687 57.9817 86.0919 58.0584 85.8681C58.1373 85.6444 58.1767 85.3898 58.1767 85.1043C58.1767 84.8188 58.1373 84.5642 58.0584 84.3404C57.9817 84.1167 57.8677 83.9399 57.7164 83.8099C57.5652 83.6799 57.3766 83.615 57.1508 83.615C56.9228 83.615 56.731 83.6799 56.5755 83.8099C56.4221 83.9399 56.3059 84.1167 56.2271 84.3404C56.1504 84.5642 56.112 84.8188 56.112 85.1043C56.112 85.3898 56.1504 85.6444 56.2271 85.8681C56.3059 86.0919 56.4221 86.2687 56.5755 86.3987C56.731 86.5265 56.9228 86.5904 57.1508 86.5904ZM60.4459 87.5493V82.6402H61.7658V83.4967H61.8169C61.9064 83.192 62.0566 82.9619 62.2676 82.8064C62.4785 82.6487 62.7214 82.5699 62.9963 82.5699C63.0645 82.5699 63.138 82.5741 63.2168 82.5826C63.2956 82.5912 63.3649 82.6029 63.4245 82.6178V83.8259C63.3606 83.8067 63.2722 83.7897 63.1593 83.7748C63.0463 83.7598 62.943 83.7524 62.8493 83.7524C62.649 83.7524 62.47 83.7961 62.3123 83.8834C62.1568 83.9686 62.0332 84.088 61.9416 84.2414C61.8521 84.3948 61.8074 84.5716 61.8074 84.7719V87.5493H60.4459ZM65.3877 87.6419C65.0745 87.6419 64.7954 87.5876 64.5503 87.4789C64.3053 87.3681 64.1114 87.2052 63.9687 86.99C63.828 86.7726 63.7577 86.502 63.7577 86.1782C63.7577 85.9054 63.8078 85.6764 63.9079 85.491C64.0081 85.3056 64.1444 85.1565 64.317 85.0436C64.4896 84.9306 64.6856 84.8454 64.9051 84.7879C65.1267 84.7304 65.3589 84.6899 65.6018 84.6664C65.8873 84.6366 66.1175 84.6089 66.2922 84.5833C66.4669 84.5556 66.5937 84.5152 66.6725 84.4619C66.7513 84.4086 66.7908 84.3298 66.7908 84.2254V84.2062C66.7908 84.0038 66.7268 83.8472 66.599 83.7364C66.4733 83.6256 66.2943 83.5702 66.0621 83.5702C65.817 83.5702 65.6221 83.6245 65.4772 83.7332C65.3323 83.8397 65.2364 83.974 65.1895 84.1359L63.9303 84.0336C63.9942 83.7353 64.1199 83.4775 64.3074 83.2602C64.4949 83.0407 64.7368 82.8724 65.0329 82.7552C65.3312 82.6359 65.6764 82.5762 66.0685 82.5762C66.3412 82.5762 66.6022 82.6082 66.8515 82.6721C67.1029 82.736 67.3256 82.8351 67.5194 82.9694C67.7155 83.1036 67.8699 83.2762 67.9829 83.4871C68.0958 83.6959 68.1523 83.9463 68.1523 84.2382V87.5493H66.8611V86.8685H66.8227C66.7439 87.0219 66.6384 87.1572 66.5063 87.2744C66.3742 87.3895 66.2155 87.48 66.0301 87.5461C65.8447 87.61 65.6306 87.6419 65.3877 87.6419ZM65.7776 86.7023C65.9779 86.7023 66.1547 86.6629 66.3082 86.5841C66.4616 86.5031 66.5819 86.3944 66.6693 86.2581C66.7567 86.1217 66.8003 85.9672 66.8003 85.7946V85.2737C66.7577 85.3014 66.6991 85.327 66.6246 85.3504C66.5521 85.3717 66.4701 85.3919 66.3785 85.4111C66.2868 85.4282 66.1952 85.4441 66.1036 85.4591C66.012 85.4718 65.9289 85.4836 65.8543 85.4942C65.6945 85.5177 65.555 85.5549 65.4356 85.6061C65.3163 85.6572 65.2236 85.7265 65.1576 85.8138C65.0915 85.899 65.0585 86.0056 65.0585 86.1334C65.0585 86.3188 65.1256 86.4605 65.2599 86.5585C65.3962 86.6544 65.5688 86.7023 65.7776 86.7023ZM71.8197 82.6402V83.6629H68.8634V82.6402H71.8197ZM69.5345 81.464H70.896V86.0407C70.896 86.1664 70.9152 86.2645 70.9536 86.3348C70.9919 86.4029 71.0452 86.4509 71.1134 86.4786C71.1837 86.5063 71.2647 86.5201 71.3563 86.5201C71.4202 86.5201 71.4841 86.5148 71.548 86.5042C71.612 86.4914 71.661 86.4818 71.6951 86.4754L71.9092 87.4885C71.841 87.5098 71.7451 87.5343 71.6215 87.562C71.498 87.5919 71.3478 87.61 71.1709 87.6164C70.8428 87.6292 70.5551 87.5855 70.308 87.4853C70.0629 87.3852 69.8723 87.2297 69.7359 87.0187C69.5995 86.8078 69.5324 86.5414 69.5345 86.2197V81.464ZM72.7066 87.5493V82.6402H74.0681V87.5493H72.7066ZM73.3905 82.0074C73.1881 82.0074 73.0145 81.9402 72.8696 81.806C72.7268 81.6696 72.6555 81.5066 72.6555 81.317C72.6555 81.1295 72.7268 80.9686 72.8696 80.8344C73.0145 80.698 73.1881 80.6299 73.3905 80.6299C73.593 80.6299 73.7655 80.698 73.9083 80.8344C74.0532 80.9686 74.1256 81.1295 74.1256 81.317C74.1256 81.5066 74.0532 81.6696 73.9083 81.806C73.7655 81.9402 73.593 82.0074 73.3905 82.0074ZM77.7987 82.6402V83.6629H74.7688V82.6402H77.7987ZM75.4624 87.5493V82.2854C75.4624 81.9296 75.5316 81.6345 75.6701 81.4001C75.8107 81.1657 76.0025 80.99 76.2454 80.8728C76.4883 80.7556 76.7642 80.697 77.0732 80.697C77.282 80.697 77.4727 80.713 77.6452 80.7449C77.82 80.7769 77.9499 80.8056 78.0352 80.8312L77.7923 81.8539C77.739 81.8369 77.6729 81.8209 77.5941 81.806C77.5174 81.7911 77.4386 81.7836 77.3576 81.7836C77.1573 81.7836 77.0178 81.8305 76.9389 81.9243C76.8601 82.0159 76.8207 82.1448 76.8207 82.311V87.5493H75.4624Z" fill="white"/>
<path d="M44.155 43.2253H47.0599V49.0352H44.155V43.2253ZM44.155 51.9401H47.0599V57.75H44.155V51.9401ZM52.8698 43.2253H55.7747V49.0352H52.8698V43.2253ZM52.8698 51.9401H55.7747V57.75H52.8698V51.9401ZM44.155 60.6549H47.0599V66.4648H44.155V60.6549ZM52.8698 60.6549H55.7747V66.4648H52.8698V60.6549Z" fill="white"/>
<path d="M76.1092 51.9401C76.1092 51.1697 75.8032 50.4308 75.2584 49.886C74.7136 49.3413 73.9747 49.0352 73.2043 49.0352H64.4895V37.4155C64.4895 36.6451 64.1834 35.9062 63.6386 35.3614C63.0939 34.8166 62.355 34.5106 61.5846 34.5106H38.3451C37.5747 34.5106 36.8358 34.8166 36.291 35.3614C35.7462 35.9062 35.4402 36.6451 35.4402 37.4155V75.1796H76.1092V51.9401ZM38.3451 37.4155H61.5846V72.2746H38.3451V37.4155ZM64.4895 72.2746V51.9401H73.2043V72.2746H64.4895Z" fill="white"/>
<path d="M99 98.4963V0C192.845 5.20972 207.345 94.4262 193.496 129.836L99 98.4963Z" fill="#01255A"/>
<path d="M113.614 87.5493V81.0038H116.197C116.691 81.0038 117.113 81.0922 117.462 81.2691C117.814 81.4438 118.081 81.692 118.265 82.0137C118.45 82.3333 118.543 82.7094 118.543 83.1419C118.543 83.5766 118.449 83.9505 118.261 84.2637C118.074 84.5748 117.802 84.8135 117.446 84.9797C117.093 85.1458 116.664 85.2289 116.162 85.2289H114.433V84.1167H115.938C116.202 84.1167 116.422 84.0805 116.596 84.0081C116.771 83.9356 116.901 83.827 116.986 83.6821C117.074 83.5372 117.117 83.3571 117.117 83.1419C117.117 82.9246 117.074 82.7414 116.986 82.5922C116.901 82.4431 116.77 82.3301 116.593 82.2534C116.418 82.1746 116.198 82.1352 115.932 82.1352H114.998V87.5493H113.614ZM117.149 84.5706L118.776 87.5493H117.248L115.657 84.5706H117.149ZM121.653 87.6451C121.148 87.6451 120.714 87.5429 120.349 87.3383C119.987 87.1316 119.708 86.8397 119.512 86.4626C119.316 86.0833 119.218 85.6348 119.218 85.1171C119.218 84.6121 119.316 84.1689 119.512 83.7875C119.708 83.4061 119.984 83.1089 120.34 82.8958C120.698 82.6828 121.117 82.5762 121.599 82.5762C121.923 82.5762 122.224 82.6284 122.503 82.7328C122.785 82.8351 123.03 82.9896 123.238 83.1963C123.449 83.4029 123.613 83.6629 123.731 83.9761C123.848 84.2872 123.906 84.6515 123.906 85.0691V85.4431H119.761V84.5993H122.625C122.625 84.4033 122.582 84.2297 122.497 84.0784C122.412 83.9271 122.293 83.8088 122.142 83.7236C121.993 83.6363 121.819 83.5926 121.621 83.5926C121.415 83.5926 121.231 83.6405 121.072 83.7364C120.914 83.8302 120.79 83.9569 120.701 84.1167C120.611 84.2744 120.566 84.4502 120.563 84.6441V85.4463C120.563 85.6892 120.608 85.899 120.698 86.0759C120.789 86.2527 120.918 86.3891 121.084 86.485C121.251 86.5809 121.448 86.6288 121.676 86.6288C121.827 86.6288 121.965 86.6075 122.091 86.5649C122.217 86.5223 122.324 86.4583 122.414 86.3731C122.503 86.2879 122.572 86.1835 122.618 86.0599L123.878 86.143C123.814 86.4456 123.683 86.7098 123.485 86.9356C123.289 87.1593 123.035 87.3341 122.724 87.4598C122.415 87.5833 122.058 87.6451 121.653 87.6451ZM121.078 82.0074L121.755 80.5532H123.015L122.04 82.0074H121.078ZM128.879 84.04L127.633 84.1167C127.612 84.0102 127.566 83.9143 127.496 83.8291C127.425 83.7417 127.333 83.6725 127.217 83.6213C127.105 83.5681 126.969 83.5414 126.812 83.5414C126.601 83.5414 126.423 83.5862 126.278 83.6757C126.133 83.763 126.061 83.8802 126.061 84.0272C126.061 84.1444 126.107 84.2435 126.201 84.3245C126.295 84.4054 126.456 84.4704 126.684 84.5194L127.572 84.6984C128.05 84.7964 128.405 84.9541 128.64 85.1714C128.874 85.3887 128.991 85.6743 128.991 86.0279C128.991 86.3497 128.896 86.632 128.707 86.8749C128.519 87.1178 128.262 87.3074 127.933 87.4438C127.607 87.578 127.231 87.6451 126.805 87.6451C126.155 87.6451 125.638 87.5098 125.252 87.2392C124.868 86.9665 124.644 86.5958 124.578 86.127L125.917 86.0567C125.957 86.2549 126.055 86.4061 126.211 86.5105C126.366 86.6128 126.566 86.664 126.808 86.664C127.047 86.664 127.239 86.6181 127.384 86.5265C127.531 86.4328 127.605 86.3124 127.607 86.1654C127.605 86.0418 127.553 85.9406 127.451 85.8618C127.349 85.7808 127.191 85.719 126.978 85.6764L126.128 85.507C125.648 85.4111 125.291 85.2449 125.057 85.0084C124.825 84.7719 124.709 84.4704 124.709 84.1039C124.709 83.7886 124.794 83.5169 124.964 83.289C125.137 83.061 125.379 82.8852 125.69 82.7616C126.003 82.638 126.369 82.5762 126.789 82.5762C127.409 82.5762 127.897 82.7073 128.253 82.9694C128.611 83.2314 128.82 83.5883 128.879 84.04ZM129.849 87.5493V82.6402H131.21V87.5493H129.849ZM130.533 82.0074C130.33 82.0074 130.157 81.9402 130.012 81.806C129.869 81.6696 129.797 81.5066 129.797 81.317C129.797 81.1295 129.869 80.9686 130.012 80.8344C130.157 80.698 130.33 80.6299 130.533 80.6299C130.735 80.6299 130.908 80.698 131.05 80.8344C131.195 80.9686 131.268 81.1295 131.268 81.317C131.268 81.5066 131.195 81.6696 131.05 81.806C130.908 81.9402 130.735 82.0074 130.533 82.0074ZM134.11 87.6292C133.737 87.6292 133.399 87.5333 133.097 87.3415C132.796 87.1476 132.558 86.8632 132.381 86.4882C132.206 86.111 132.119 85.6487 132.119 85.1011C132.119 84.5386 132.209 84.0709 132.39 83.698C132.571 83.323 132.812 83.0429 133.113 82.8575C133.415 82.67 133.746 82.5762 134.107 82.5762C134.381 82.5762 134.61 82.6231 134.794 82.7169C134.979 82.8085 135.128 82.9235 135.241 83.062C135.356 83.1984 135.444 83.3326 135.503 83.4647H135.545V81.0038H136.903V87.5493H135.561V86.763H135.503C135.439 86.8994 135.349 87.0347 135.232 87.1689C135.116 87.301 134.966 87.4108 134.781 87.4981C134.598 87.5855 134.374 87.6292 134.11 87.6292ZM134.541 86.5457C134.761 86.5457 134.946 86.486 135.097 86.3667C135.251 86.2453 135.368 86.0759 135.449 85.8586C135.532 85.6412 135.573 85.3866 135.573 85.0947C135.573 84.8028 135.533 84.5493 135.452 84.3341C135.371 84.1189 135.254 83.9527 135.1 83.8355C134.947 83.7183 134.761 83.6597 134.541 83.6597C134.317 83.6597 134.129 83.7204 133.975 83.8419C133.822 83.9633 133.706 84.1316 133.627 84.3468C133.548 84.562 133.509 84.8113 133.509 85.0947C133.509 85.3802 133.548 85.6327 133.627 85.8522C133.708 86.0695 133.824 86.24 133.975 86.3635C134.129 86.485 134.317 86.5457 134.541 86.5457ZM140.26 87.6451C139.755 87.6451 139.32 87.5429 138.956 87.3383C138.593 87.1316 138.314 86.8397 138.118 86.4626C137.922 86.0833 137.824 85.6348 137.824 85.1171C137.824 84.6121 137.922 84.1689 138.118 83.7875C138.314 83.4061 138.59 83.1089 138.946 82.8958C139.304 82.6828 139.724 82.5762 140.205 82.5762C140.529 82.5762 140.831 82.6284 141.11 82.7328C141.391 82.8351 141.636 82.9896 141.845 83.1963C142.056 83.4029 142.22 83.6629 142.337 83.9761C142.454 84.2872 142.513 84.6515 142.513 85.0691V85.4431H138.368V84.5993H141.231C141.231 84.4033 141.189 84.2297 141.103 84.0784C141.018 83.9271 140.9 83.8088 140.749 83.7236C140.6 83.6363 140.426 83.5926 140.228 83.5926C140.021 83.5926 139.838 83.6405 139.678 83.7364C139.52 83.8302 139.397 83.9569 139.307 84.1167C139.218 84.2744 139.172 84.4502 139.17 84.6441V85.4463C139.17 85.6892 139.215 85.899 139.304 86.0759C139.396 86.2527 139.525 86.3891 139.691 86.485C139.857 86.5809 140.054 86.6288 140.282 86.6288C140.433 86.6288 140.572 86.6075 140.698 86.5649C140.823 86.5223 140.931 86.4583 141.02 86.3731C141.11 86.2879 141.178 86.1835 141.225 86.0599L142.484 86.143C142.42 86.4456 142.289 86.7098 142.091 86.9356C141.895 87.1593 141.641 87.3341 141.33 87.4598C141.021 87.5833 140.664 87.6451 140.26 87.6451ZM144.763 84.7112V87.5493H143.401V82.6402H144.699V83.5063H144.756C144.865 83.2208 145.047 82.9949 145.303 82.8287C145.559 82.6604 145.869 82.5762 146.233 82.5762C146.574 82.5762 146.871 82.6508 147.125 82.8C147.378 82.9491 147.575 83.1622 147.716 83.4392C147.857 83.714 147.927 84.0422 147.927 84.4235V87.5493H146.565V84.6664C146.568 84.366 146.491 84.1316 146.335 83.9633C146.18 83.7929 145.966 83.7076 145.693 83.7076C145.51 83.7076 145.348 83.7471 145.207 83.8259C145.069 83.9047 144.96 84.0198 144.881 84.1711C144.804 84.3202 144.765 84.5002 144.763 84.7112ZM151.611 82.6402V83.6629H148.655V82.6402H151.611ZM149.326 81.464H150.687V86.0407C150.687 86.1664 150.707 86.2645 150.745 86.3348C150.783 86.4029 150.837 86.4509 150.905 86.4786C150.975 86.5063 151.056 86.5201 151.148 86.5201C151.212 86.5201 151.276 86.5148 151.339 86.5042C151.403 86.4914 151.452 86.4818 151.486 86.4754L151.701 87.4885C151.632 87.5098 151.537 87.5343 151.413 87.562C151.289 87.5919 151.139 87.61 150.962 87.6164C150.634 87.6292 150.347 87.5855 150.099 87.4853C149.854 87.3852 149.664 87.2297 149.527 87.0187C149.391 86.8078 149.324 86.5414 149.326 86.2197V81.464ZM152.498 87.5493V82.6402H153.86V87.5493H152.498ZM153.182 82.0074C152.98 82.0074 152.806 81.9402 152.661 81.806C152.518 81.6696 152.447 81.5066 152.447 81.317C152.447 81.1295 152.518 80.9686 152.661 80.8344C152.806 80.698 152.98 80.6299 153.182 80.6299C153.384 80.6299 153.557 80.698 153.7 80.8344C153.845 80.9686 153.917 81.1295 153.917 81.317C153.917 81.5066 153.845 81.6696 153.7 81.806C153.557 81.9402 153.384 82.0074 153.182 82.0074ZM157.187 87.6451C156.682 87.6451 156.248 87.5429 155.883 87.3383C155.521 87.1316 155.242 86.8397 155.046 86.4626C154.85 86.0833 154.752 85.6348 154.752 85.1171C154.752 84.6121 154.85 84.1689 155.046 83.7875C155.242 83.4061 155.518 83.1089 155.874 82.8958C156.232 82.6828 156.652 82.5762 157.133 82.5762C157.457 82.5762 157.758 82.6284 158.038 82.7328C158.319 82.8351 158.564 82.9896 158.773 83.1963C158.984 83.4029 159.148 83.6629 159.265 83.9761C159.382 84.2872 159.441 84.6515 159.441 85.0691V85.4431H155.295V84.5993H158.159C158.159 84.4033 158.116 84.2297 158.031 84.0784C157.946 83.9271 157.828 83.8088 157.676 83.7236C157.527 83.6363 157.354 83.5926 157.155 83.5926C156.949 83.5926 156.766 83.6405 156.606 83.7364C156.448 83.8302 156.324 83.9569 156.235 84.1167C156.145 84.2744 156.1 84.4502 156.098 84.6441V85.4463C156.098 85.6892 156.142 85.899 156.232 86.0759C156.323 86.2527 156.452 86.3891 156.619 86.485C156.785 86.5809 156.982 86.6288 157.21 86.6288C157.361 86.6288 157.5 86.6075 157.625 86.5649C157.751 86.5223 157.859 86.4583 157.948 86.3731C158.038 86.2879 158.106 86.1835 158.153 86.0599L159.412 86.143C159.348 86.4456 159.217 86.7098 159.019 86.9356C158.823 87.1593 158.569 87.3341 158.258 87.4598C157.949 87.5833 157.592 87.6451 157.187 87.6451ZM161.691 81.0038V87.5493H160.329V81.0038H161.691Z" fill="white"/>
<path d="M149.236 37.4155H144.394C144.138 37.4155 143.891 37.5175 143.71 37.6991C143.528 37.8807 143.426 38.127 143.426 38.3838V38.4981L150.204 43.9206V38.3838C150.204 38.127 150.102 37.8807 149.921 37.6991C149.739 37.5175 149.493 37.4155 149.236 37.4155Z" fill="white"/>
<path d="M134.227 50.0035C134.227 49.3615 134.482 48.7458 134.936 48.2918C135.39 47.8378 136.006 47.5828 136.648 47.5828C137.29 47.5828 137.906 47.8378 138.36 48.2918C138.814 48.7458 139.069 49.3615 139.069 50.0035C139.069 50.6456 138.814 51.2613 138.36 51.7153C137.906 52.1693 137.29 52.4243 136.648 52.4243C136.006 52.4243 135.39 52.1693 134.936 51.7153C134.482 51.2613 134.227 50.6456 134.227 50.0035Z" fill="white"/>
<path fill-rule="evenodd" clip-rule="evenodd" d="M153.593 52.831L155.108 54.0433C155.409 54.2783 155.791 54.3849 156.171 54.3401C156.55 54.2953 156.897 54.1027 157.136 53.8041C157.374 53.5054 157.485 53.1248 157.445 52.7447C157.405 52.3646 157.216 52.0157 156.921 51.7736L141.186 39.1856C139.898 38.155 138.297 37.5936 136.648 37.5936C134.999 37.5936 133.398 38.155 132.111 39.1856L116.375 51.7736C116.074 52.0142 115.881 52.3646 115.839 52.7476C115.796 53.1305 115.907 53.5148 116.148 53.8158C116.389 54.1168 116.739 54.3098 117.122 54.3525C117.505 54.3952 117.889 54.284 118.19 54.0433L119.703 52.831V72.7588H117.282C116.897 72.7588 116.527 72.9118 116.255 73.1842C115.982 73.4566 115.829 73.8261 115.829 74.2113C115.829 74.5965 115.982 74.9659 116.255 75.2383C116.527 75.5107 116.897 75.6637 117.282 75.6637H156.014C156.399 75.6637 156.769 75.5107 157.041 75.2383C157.314 74.9659 157.467 74.5965 157.467 74.2113C157.467 73.8261 157.314 73.4566 157.041 73.1842C156.769 72.9118 156.399 72.7588 156.014 72.7588H153.593V52.831ZM131.322 50.0035C131.322 48.5911 131.883 47.2365 132.882 46.2377C133.881 45.2389 135.236 44.6778 136.648 44.6778C138.06 44.6778 139.415 45.2389 140.414 46.2377C141.413 47.2365 141.974 48.5911 141.974 50.0035C141.974 51.416 141.413 52.7706 140.414 53.7694C139.415 54.7681 138.06 55.3292 136.648 55.3292C135.236 55.3292 133.881 54.7681 132.882 53.7694C131.883 52.7706 131.322 51.416 131.322 50.0035ZM136.745 57.2659C138.031 57.2659 139.14 57.2659 140.029 57.3859C140.982 57.5137 141.894 57.8023 142.634 58.5421C143.374 59.2819 143.662 60.194 143.79 61.1468C143.903 61.9796 143.91 63.006 143.91 64.1931V72.7588H141.005V64.5282C141.005 63.1183 141.002 62.2042 140.912 61.5342C140.827 60.9048 140.692 60.7072 140.579 60.5968C140.467 60.4865 140.271 60.349 139.642 60.2637C138.97 60.1747 138.058 60.1708 136.648 60.1708C135.238 60.1708 134.324 60.1747 133.654 60.2637C133.025 60.349 132.827 60.4865 132.717 60.5968C132.606 60.7072 132.469 60.9048 132.384 61.5342C132.294 62.2062 132.291 63.1183 132.291 64.5282V72.7588H129.386V64.4314C129.386 63.1454 129.386 62.0358 129.506 61.1468C129.634 60.194 129.922 59.2819 130.662 58.5421C131.402 57.8023 132.316 57.5137 133.267 57.3859C134.156 57.2659 135.265 57.2659 136.553 57.2659H136.745Z" fill="white"/>
<path d="M134.227 50.0035C134.227 49.3615 134.482 48.7458 134.936 48.2918C135.39 47.8378 136.006 47.5828 136.648 47.5828C137.29 47.5828 137.906 47.8378 138.36 48.2918C138.814 48.7458 139.069 49.3615 139.069 50.0035C139.069 50.6456 138.814 51.2613 138.36 51.7153C137.906 52.1693 137.29 52.4243 136.648 52.4243C136.006 52.4243 135.39 52.1693 134.936 51.7153C134.482 51.2613 134.227 50.6456 134.227 50.0035Z" fill="white"/>
</svg>
