<svg width="243" height="243" viewBox="0 0 243 243" fill="none" xmlns="http://www.w3.org/2000/svg">
<circle cx="121.5" cy="121.5" r="121.5" fill="#124A9F"/>
<line x1="120" y1="122.07" x2="120" y2="7.62939e-06" stroke="white" stroke-width="3"/>
<line x1="236.828" y1="160.003" x2="120.461" y2="121.784" stroke="white" stroke-width="3"/>
<path d="M141.824 106.401V99.1286H144.694C145.243 99.1286 145.712 99.2269 146.1 99.4234C146.491 99.6175 146.788 99.8933 146.991 100.251C147.197 100.606 147.3 101.024 147.3 101.504C147.3 101.987 147.196 102.403 146.988 102.751C146.779 103.096 146.478 103.362 146.082 103.546C145.689 103.731 145.213 103.823 144.655 103.823H142.734V102.587H144.406C144.7 102.587 144.944 102.547 145.138 102.467C145.332 102.386 145.476 102.265 145.571 102.104C145.668 101.944 145.716 101.743 145.716 101.504C145.716 101.263 145.668 101.059 145.571 100.894C145.476 100.728 145.331 100.602 145.134 100.517C144.94 100.43 144.695 100.386 144.399 100.386H143.362V106.401H141.824ZM145.752 103.092L147.56 106.401H145.862L144.094 103.092H145.752ZM150.756 106.508C150.195 106.508 149.712 106.394 149.308 106.167C148.905 105.937 148.595 105.613 148.377 105.194C148.159 104.773 148.05 104.274 148.05 103.699C148.05 103.138 148.159 102.645 148.377 102.222C148.595 101.798 148.902 101.468 149.297 101.231C149.695 100.994 150.161 100.876 150.696 100.876C151.056 100.876 151.391 100.934 151.701 101.05C152.014 101.163 152.286 101.335 152.518 101.565C152.752 101.794 152.934 102.083 153.065 102.431C153.195 102.777 153.26 103.182 153.26 103.646V104.061H148.654V103.124H151.836C151.836 102.906 151.789 102.713 151.694 102.545C151.599 102.377 151.468 102.245 151.3 102.151C151.134 102.054 150.941 102.005 150.721 102.005C150.491 102.005 150.288 102.058 150.11 102.165C149.935 102.269 149.798 102.41 149.698 102.587C149.599 102.763 149.548 102.958 149.545 103.173V104.065C149.545 104.335 149.595 104.568 149.695 104.764C149.796 104.961 149.94 105.112 150.124 105.219C150.309 105.325 150.528 105.379 150.781 105.379C150.949 105.379 151.103 105.355 151.243 105.308C151.383 105.26 151.502 105.189 151.602 105.095C151.701 105 151.777 104.884 151.829 104.747L153.228 104.839C153.157 105.175 153.011 105.469 152.791 105.72C152.573 105.968 152.292 106.162 151.946 106.302C151.603 106.439 151.206 106.508 150.756 106.508ZM150.117 100.244L150.87 98.6279H152.269L151.186 100.244H150.117ZM158.786 102.502L157.401 102.587C157.377 102.469 157.326 102.363 157.248 102.268C157.17 102.171 157.067 102.094 156.939 102.037C156.813 101.978 156.663 101.948 156.488 101.948C156.254 101.948 156.056 101.998 155.895 102.097C155.734 102.194 155.653 102.325 155.653 102.488C155.653 102.618 155.706 102.728 155.81 102.818C155.914 102.908 156.093 102.98 156.346 103.035L157.333 103.234C157.863 103.343 158.259 103.518 158.519 103.759C158.78 104.001 158.91 104.318 158.91 104.711C158.91 105.069 158.804 105.382 158.594 105.652C158.385 105.922 158.099 106.133 157.734 106.284C157.372 106.433 156.954 106.508 156.481 106.508C155.759 106.508 155.184 106.358 154.755 106.057C154.329 105.754 154.079 105.342 154.006 104.821L155.494 104.743C155.539 104.963 155.648 105.131 155.82 105.247C155.993 105.361 156.215 105.418 156.484 105.418C156.75 105.418 156.963 105.367 157.124 105.265C157.287 105.161 157.37 105.027 157.372 104.864C157.37 104.726 157.312 104.614 157.198 104.526C157.085 104.436 156.909 104.368 156.673 104.32L155.728 104.132C155.195 104.026 154.799 103.841 154.538 103.578C154.28 103.315 154.151 102.98 154.151 102.573C154.151 102.223 154.246 101.921 154.435 101.668C154.627 101.414 154.896 101.219 155.242 101.082C155.59 100.944 155.997 100.876 156.463 100.876C157.152 100.876 157.694 101.021 158.09 101.313C158.487 101.604 158.719 102 158.786 102.502ZM159.862 106.401V100.947H161.375V106.401H159.862ZM160.622 100.244C160.397 100.244 160.205 100.169 160.044 100.02C159.885 99.8685 159.806 99.6874 159.806 99.4767C159.806 99.2683 159.885 99.0896 160.044 98.9404C160.205 98.7889 160.397 98.7132 160.622 98.7132C160.847 98.7132 161.039 98.7889 161.198 98.9404C161.359 99.0896 161.439 99.2683 161.439 99.4767C161.439 99.6874 161.359 99.8685 161.198 100.02C161.039 100.169 160.847 100.244 160.622 100.244ZM164.597 106.49C164.183 106.49 163.807 106.384 163.471 106.171C163.137 105.955 162.872 105.639 162.676 105.222C162.482 104.803 162.385 104.29 162.385 103.681C162.385 103.056 162.485 102.537 162.686 102.122C162.888 101.706 163.155 101.394 163.489 101.188C163.825 100.98 164.193 100.876 164.593 100.876C164.899 100.876 165.153 100.928 165.357 101.032C165.563 101.134 165.729 101.262 165.854 101.416C165.982 101.567 166.079 101.716 166.145 101.863H166.191V99.1286H167.701V106.401H166.209V105.528H166.145C166.074 105.679 165.974 105.83 165.843 105.979C165.716 106.126 165.549 106.247 165.343 106.345C165.139 106.442 164.891 106.49 164.597 106.49ZM165.076 105.286C165.32 105.286 165.526 105.22 165.694 105.087C165.865 104.953 165.995 104.764 166.085 104.523C166.177 104.281 166.223 103.998 166.223 103.674C166.223 103.35 166.178 103.068 166.088 102.829C165.998 102.59 165.868 102.405 165.698 102.275C165.527 102.145 165.32 102.08 165.076 102.08C164.828 102.08 164.618 102.147 164.448 102.282C164.277 102.417 164.148 102.604 164.061 102.843C163.973 103.082 163.929 103.359 163.929 103.674C163.929 103.991 163.973 104.272 164.061 104.516C164.151 104.757 164.28 104.947 164.448 105.084C164.618 105.219 164.828 105.286 165.076 105.286ZM171.43 106.508C170.869 106.508 170.386 106.394 169.981 106.167C169.579 105.937 169.269 105.613 169.051 105.194C168.833 104.773 168.724 104.274 168.724 103.699C168.724 103.138 168.833 102.645 169.051 102.222C169.269 101.798 169.575 101.468 169.971 101.231C170.368 100.994 170.835 100.876 171.37 100.876C171.73 100.876 172.065 100.934 172.375 101.05C172.687 101.163 172.96 101.335 173.192 101.565C173.426 101.794 173.608 102.083 173.738 102.431C173.869 102.777 173.934 103.182 173.934 103.646V104.061H169.328V103.124H172.51C172.51 102.906 172.462 102.713 172.368 102.545C172.273 102.377 172.142 102.245 171.974 102.151C171.808 102.054 171.615 102.005 171.395 102.005C171.165 102.005 170.961 102.058 170.784 102.165C170.609 102.269 170.471 102.41 170.372 102.587C170.273 102.763 170.222 102.958 170.219 103.173V104.065C170.219 104.335 170.269 104.568 170.368 104.764C170.47 104.961 170.613 105.112 170.798 105.219C170.983 105.325 171.202 105.379 171.455 105.379C171.623 105.379 171.777 105.355 171.917 105.308C172.056 105.26 172.176 105.189 172.275 105.095C172.375 105 172.451 104.884 172.503 104.747L173.902 104.839C173.831 105.175 173.685 105.469 173.465 105.72C173.247 105.968 172.966 106.162 172.62 106.302C172.277 106.439 171.88 106.508 171.43 106.508ZM176.434 103.248V106.401H174.921V100.947H176.363V101.909H176.427C176.547 101.592 176.75 101.341 177.034 101.156C177.318 100.969 177.662 100.876 178.067 100.876C178.446 100.876 178.776 100.959 179.058 101.124C179.34 101.29 179.559 101.527 179.715 101.835C179.871 102.14 179.949 102.505 179.949 102.928V106.401H178.437V103.198C178.439 102.864 178.354 102.604 178.181 102.417C178.008 102.228 177.77 102.133 177.467 102.133C177.264 102.133 177.084 102.177 176.927 102.264C176.774 102.352 176.653 102.48 176.565 102.648C176.48 102.814 176.436 103.014 176.434 103.248ZM184.043 100.947V102.083H180.758V100.947H184.043ZM181.504 99.64H183.017V104.725C183.017 104.865 183.038 104.974 183.081 105.052C183.123 105.128 183.182 105.181 183.258 105.212C183.336 105.243 183.426 105.258 183.528 105.258C183.599 105.258 183.67 105.252 183.741 105.24C183.812 105.226 183.867 105.215 183.905 105.208L184.142 106.334C184.067 106.358 183.96 106.385 183.823 106.416C183.686 106.449 183.519 106.469 183.322 106.476C182.958 106.49 182.638 106.442 182.363 106.33C182.091 106.219 181.879 106.046 181.728 105.812C181.576 105.578 181.502 105.282 181.504 104.924V99.64ZM185.028 106.401V100.947H186.541V106.401H185.028ZM185.788 100.244C185.563 100.244 185.371 100.169 185.21 100.02C185.051 99.8685 184.972 99.6874 184.972 99.4767C184.972 99.2683 185.051 99.0896 185.21 98.9404C185.371 98.7889 185.563 98.7132 185.788 98.7132C186.013 98.7132 186.205 98.7889 186.364 98.9404C186.525 99.0896 186.605 99.2683 186.605 99.4767C186.605 99.6874 186.525 99.8685 186.364 100.02C186.205 100.169 186.013 100.244 185.788 100.244ZM190.239 106.508C189.678 106.508 189.195 106.394 188.79 106.167C188.388 105.937 188.077 105.613 187.86 105.194C187.642 104.773 187.533 104.274 187.533 103.699C187.533 103.138 187.642 102.645 187.86 102.222C188.077 101.798 188.384 101.468 188.779 101.231C189.177 100.994 189.643 100.876 190.178 100.876C190.538 100.876 190.873 100.934 191.183 101.05C191.496 101.163 191.768 101.335 192 101.565C192.235 101.794 192.417 102.083 192.547 102.431C192.677 102.777 192.742 103.182 192.742 103.646V104.061H188.137V103.124H191.318C191.318 102.906 191.271 102.713 191.176 102.545C191.082 102.377 190.95 102.245 190.782 102.151C190.616 102.054 190.424 102.005 190.203 102.005C189.974 102.005 189.77 102.058 189.593 102.165C189.417 102.269 189.28 102.41 189.181 102.587C189.081 102.763 189.03 102.958 189.028 103.173V104.065C189.028 104.335 189.078 104.568 189.177 104.764C189.279 104.961 189.422 105.112 189.607 105.219C189.791 105.325 190.01 105.379 190.264 105.379C190.432 105.379 190.586 105.355 190.725 105.308C190.865 105.26 190.985 105.189 191.084 105.095C191.183 105 191.259 104.884 191.311 104.747L192.71 104.839C192.639 105.175 192.494 105.469 192.274 105.72C192.056 105.968 191.774 106.162 191.428 106.302C191.085 106.439 190.689 106.508 190.239 106.508ZM195.242 99.1286V106.401H193.73V99.1286H195.242Z" fill="white"/>
<path d="M49.6574 101.675H48.102C48.0736 101.474 48.0156 101.295 47.928 101.139C47.8404 100.98 47.728 100.845 47.5906 100.734C47.4533 100.622 47.2947 100.537 47.1148 100.478C46.9372 100.419 46.7443 100.389 46.536 100.389C46.1595 100.389 45.8316 100.483 45.5523 100.67C45.2729 100.854 45.0563 101.124 44.9024 101.479C44.7486 101.832 44.6716 102.261 44.6716 102.765C44.6716 103.283 44.7486 103.719 44.9024 104.072C45.0587 104.425 45.2765 104.691 45.5558 104.871C45.8352 105.051 46.1584 105.141 46.5253 105.141C46.7313 105.141 46.9218 105.113 47.097 105.059C47.2746 105.005 47.432 104.925 47.5693 104.821C47.7066 104.715 47.8203 104.586 47.9102 104.434C48.0026 104.283 48.0665 104.11 48.102 103.916L49.6574 103.923C49.6172 104.256 49.5165 104.578 49.3556 104.889C49.1969 105.196 48.9827 105.472 48.7128 105.716C48.4453 105.957 48.1257 106.149 47.754 106.291C47.3847 106.431 46.9668 106.501 46.5004 106.501C45.8518 106.501 45.2718 106.354 44.7604 106.06C44.2514 105.767 43.8489 105.342 43.553 104.786C43.2594 104.229 43.1127 103.556 43.1127 102.765C43.1127 101.972 43.2618 101.297 43.5601 100.741C43.8584 100.185 44.2632 99.7607 44.7746 99.4695C45.286 99.176 45.8612 99.0292 46.5004 99.0292C46.9218 99.0292 47.3125 99.0884 47.6723 99.2068C48.0345 99.3251 48.3553 99.498 48.6347 99.7252C48.914 99.9501 49.1413 100.226 49.3165 100.553C49.4941 100.879 49.6077 101.253 49.6574 101.675ZM53.1961 106.508C52.6445 106.508 52.1675 106.391 51.765 106.156C51.3649 105.92 51.056 105.591 50.8382 105.169C50.6204 104.745 50.5115 104.254 50.5115 103.695C50.5115 103.132 50.6204 102.64 50.8382 102.218C51.056 101.794 51.3649 101.465 51.765 101.231C52.1675 100.994 52.6445 100.876 53.1961 100.876C53.7477 100.876 54.2236 100.994 54.6237 101.231C55.0261 101.465 55.3363 101.794 55.5541 102.218C55.7719 102.64 55.8808 103.132 55.8808 103.695C55.8808 104.254 55.7719 104.745 55.5541 105.169C55.3363 105.591 55.0261 105.92 54.6237 106.156C54.2236 106.391 53.7477 106.508 53.1961 106.508ZM53.2032 105.336C53.4542 105.336 53.6637 105.265 53.8318 105.123C53.9999 104.979 54.1265 104.782 54.2117 104.533C54.2993 104.285 54.3431 104.002 54.3431 103.685C54.3431 103.368 54.2993 103.085 54.2117 102.836C54.1265 102.587 53.9999 102.391 53.8318 102.247C53.6637 102.102 53.4542 102.03 53.2032 102.03C52.9499 102.03 52.7368 102.102 52.564 102.247C52.3936 102.391 52.2645 102.587 52.1769 102.836C52.0917 103.085 52.0491 103.368 52.0491 103.685C52.0491 104.002 52.0917 104.285 52.1769 104.533C52.2645 104.782 52.3936 104.979 52.564 105.123C52.7368 105.265 52.9499 105.336 53.2032 105.336ZM56.8644 106.401V100.947H58.3311V101.899H58.3879C58.4873 101.56 58.6542 101.304 58.8886 101.131C59.123 100.956 59.3928 100.869 59.6982 100.869C59.774 100.869 59.8557 100.873 59.9433 100.883C60.0309 100.892 60.1078 100.905 60.1741 100.922V102.264C60.1031 102.243 60.0048 102.224 59.8794 102.207C59.7539 102.191 59.6391 102.183 59.5349 102.183C59.3124 102.183 59.1135 102.231 58.9383 102.328C58.7655 102.423 58.6282 102.555 58.5264 102.726C58.4269 102.896 58.3772 103.093 58.3772 103.315V106.401H56.8644ZM60.9562 108.447V100.947H62.4477V101.863H62.5152C62.5815 101.716 62.6773 101.567 62.8028 101.416C62.9307 101.262 63.0964 101.134 63.3 101.032C63.5059 100.928 63.7616 100.876 64.067 100.876C64.4648 100.876 64.8317 100.98 65.1679 101.188C65.5041 101.394 65.7728 101.706 65.974 102.122C66.1752 102.537 66.2758 103.056 66.2758 103.681C66.2758 104.29 66.1776 104.803 65.9811 105.222C65.787 105.639 65.5218 105.955 65.1856 106.171C64.8518 106.384 64.4778 106.49 64.0635 106.49C63.7699 106.49 63.5202 106.442 63.3142 106.345C63.1106 106.247 62.9437 106.126 62.8135 105.979C62.6833 105.83 62.5838 105.679 62.5152 105.528H62.469V108.447H60.9562ZM62.4371 103.674C62.4371 103.998 62.482 104.281 62.572 104.523C62.662 104.764 62.7922 104.953 62.9626 105.087C63.1331 105.22 63.3402 105.286 63.5841 105.286C63.8303 105.286 64.0386 105.219 64.2091 105.084C64.3795 104.947 64.5086 104.757 64.5961 104.516C64.6861 104.272 64.7311 103.991 64.7311 103.674C64.7311 103.359 64.6873 103.082 64.5997 102.843C64.5121 102.604 64.3831 102.417 64.2126 102.282C64.0422 102.147 63.8327 102.08 63.5841 102.08C63.3379 102.08 63.1295 102.145 62.9591 102.275C62.791 102.405 62.662 102.59 62.572 102.829C62.482 103.068 62.4371 103.35 62.4371 103.674ZM69.7488 106.508C69.1972 106.508 68.7202 106.391 68.3177 106.156C67.9176 105.92 67.6087 105.591 67.3909 105.169C67.1731 104.745 67.0642 104.254 67.0642 103.695C67.0642 103.132 67.1731 102.64 67.3909 102.218C67.6087 101.794 67.9176 101.465 68.3177 101.231C68.7202 100.994 69.1972 100.876 69.7488 100.876C70.3005 100.876 70.7763 100.994 71.1764 101.231C71.5789 101.465 71.889 101.794 72.1068 102.218C72.3246 102.64 72.4335 103.132 72.4335 103.695C72.4335 104.254 72.3246 104.745 72.1068 105.169C71.889 105.591 71.5789 105.92 71.1764 106.156C70.7763 106.391 70.3005 106.508 69.7488 106.508ZM69.7559 105.336C70.0069 105.336 70.2164 105.265 70.3845 105.123C70.5526 104.979 70.6792 104.782 70.7645 104.533C70.8521 104.285 70.8959 104.002 70.8959 103.685C70.8959 103.368 70.8521 103.085 70.7645 102.836C70.6792 102.587 70.5526 102.391 70.3845 102.247C70.2164 102.102 70.0069 102.03 69.7559 102.03C69.5026 102.03 69.2896 102.102 69.1167 102.247C68.9463 102.391 68.8173 102.587 68.7297 102.836C68.6444 103.085 68.6018 103.368 68.6018 103.685C68.6018 104.002 68.6444 104.285 68.7297 104.533C68.8173 104.782 68.9463 104.979 69.1167 105.123C69.2896 105.265 69.5026 105.336 69.7559 105.336ZM73.4172 106.401V100.947H74.8838V101.899H74.9406C75.04 101.56 75.2069 101.304 75.4413 101.131C75.6757 100.956 75.9456 100.869 76.251 100.869C76.3267 100.869 76.4084 100.873 76.496 100.883C76.5836 100.892 76.6605 100.905 76.7268 100.922V102.264C76.6558 102.243 76.5576 102.224 76.4321 102.207C76.3066 102.191 76.1918 102.183 76.0876 102.183C75.8651 102.183 75.6662 102.231 75.491 102.328C75.3182 102.423 75.1809 102.555 75.0791 102.726C74.9797 102.896 74.93 103.093 74.93 103.315V106.401H73.4172ZM78.9081 106.504C78.5601 106.504 78.25 106.444 77.9777 106.323C77.7055 106.2 77.49 106.019 77.3314 105.78C77.1752 105.538 77.097 105.238 77.097 104.878C77.097 104.575 77.1527 104.32 77.2639 104.114C77.3752 103.908 77.5267 103.743 77.7185 103.617C77.9102 103.492 78.128 103.397 78.3719 103.333C78.6181 103.269 78.8762 103.224 79.146 103.198C79.4633 103.165 79.719 103.134 79.9131 103.106C80.1072 103.075 80.2481 103.03 80.3357 102.971C80.4233 102.912 80.4671 102.824 80.4671 102.708V102.687C80.4671 102.462 80.396 102.288 80.254 102.165C80.1143 102.042 79.9155 101.98 79.6574 101.98C79.3852 101.98 79.1685 102.041 79.0075 102.161C78.8466 102.28 78.74 102.429 78.6879 102.609L77.2888 102.495C77.3598 102.164 77.4995 101.877 77.7078 101.636C77.9162 101.392 78.1849 101.205 78.5139 101.075C78.8454 100.942 79.2289 100.876 79.6645 100.876C79.9675 100.876 80.2575 100.911 80.5345 100.982C80.8139 101.053 81.0613 101.163 81.2767 101.313C81.4945 101.462 81.6662 101.653 81.7916 101.888C81.9171 102.12 81.9798 102.398 81.9798 102.722V106.401H80.5452V105.645H80.5026C80.415 105.815 80.2978 105.966 80.151 106.096C80.0042 106.224 79.8279 106.324 79.6219 106.398C79.4159 106.469 79.178 106.504 78.9081 106.504ZM79.3414 105.46C79.5639 105.46 79.7604 105.417 79.9308 105.329C80.1013 105.239 80.2351 105.118 80.3321 104.967C80.4292 104.815 80.4777 104.644 80.4777 104.452V103.873C80.4304 103.904 80.3653 103.932 80.2824 103.958C80.2019 103.982 80.1108 104.004 80.009 104.026C79.9072 104.045 79.8054 104.062 79.7036 104.079C79.6018 104.093 79.5094 104.106 79.4266 104.118C79.249 104.144 79.094 104.185 78.9614 104.242C78.8288 104.299 78.7258 104.376 78.6524 104.473C78.579 104.568 78.5423 104.686 78.5423 104.828C78.5423 105.034 78.6169 105.192 78.7661 105.301C78.9176 105.407 79.1093 105.46 79.3414 105.46ZM86.0548 100.947V102.083H82.77V100.947H86.0548ZM83.5157 99.64H85.0285V104.725C85.0285 104.865 85.0498 104.974 85.0924 105.052C85.135 105.128 85.1942 105.181 85.27 105.212C85.3481 105.243 85.4381 105.258 85.5399 105.258C85.6109 105.258 85.6819 105.252 85.7529 105.24C85.824 105.226 85.8784 105.215 85.9163 105.208L86.1542 106.334C86.0785 106.358 85.9719 106.385 85.8346 106.416C85.6973 106.449 85.5304 106.469 85.3339 106.476C84.9693 106.49 84.6497 106.442 84.3751 106.33C84.1028 106.219 83.891 106.046 83.7394 105.812C83.5879 105.578 83.5133 105.282 83.5157 104.924V99.64ZM87.0402 106.401V100.947H88.553V106.401H87.0402ZM87.8002 100.244C87.5753 100.244 87.3823 100.169 87.2213 100.02C87.0627 99.8685 86.9834 99.6874 86.9834 99.4767C86.9834 99.2683 87.0627 99.0896 87.2213 98.9404C87.3823 98.7889 87.5753 98.7132 87.8002 98.7132C88.0251 98.7132 88.2168 98.7889 88.3754 98.9404C88.5364 99.0896 88.6169 99.2683 88.6169 99.4767C88.6169 99.6874 88.5364 99.8685 88.3754 100.02C88.2168 100.169 88.0251 100.244 87.8002 100.244ZM92.6981 100.947V102.083H89.3316V100.947H92.6981ZM90.1022 106.401V100.553C90.1022 100.157 90.1791 99.8294 90.333 99.569C90.4893 99.3086 90.7023 99.1133 90.9722 98.983C91.2421 98.8528 91.5487 98.7877 91.892 98.7877C92.124 98.7877 92.3358 98.8055 92.5276 98.841C92.7217 98.8765 92.8662 98.9085 92.9608 98.9369L92.691 100.073C92.6318 100.054 92.5584 100.037 92.4708 100.02C92.3856 100.003 92.298 99.9951 92.208 99.9951C91.9855 99.9951 91.8304 100.047 91.7428 100.151C91.6552 100.253 91.6114 100.396 91.6114 100.581V106.401H90.1022Z" fill="white"/>
<path d="M183.153 45.919H177.211C176.896 45.919 176.594 46.0442 176.371 46.2671C176.148 46.4899 176.023 46.7922 176.023 47.1074V47.2476L184.342 53.9025V47.1074C184.342 46.7922 184.216 46.4899 183.994 46.2671C183.771 46.0442 183.468 45.919 183.153 45.919Z" fill="white"/>
<path d="M164.733 61.3679C164.733 60.58 165.046 59.8243 165.604 59.2671C166.161 58.71 166.916 58.397 167.704 58.397C168.492 58.397 169.248 58.71 169.805 59.2671C170.362 59.8243 170.675 60.58 170.675 61.3679C170.675 62.1559 170.362 62.9115 169.805 63.4687C169.248 64.0259 168.492 64.3389 167.704 64.3389C166.916 64.3389 166.161 64.0259 165.604 63.4687C165.046 62.9115 164.733 62.1559 164.733 61.3679Z" fill="white"/>
<path fill-rule="evenodd" clip-rule="evenodd" d="M188.501 64.838L190.36 66.3259C190.73 66.6142 191.198 66.7451 191.664 66.6901C192.13 66.6351 192.555 66.3987 192.848 66.0322C193.141 65.6657 193.277 65.1985 193.228 64.732C193.179 64.2656 192.947 63.8374 192.584 63.5403L173.273 48.0913C171.693 46.8266 169.729 46.1375 167.704 46.1375C165.68 46.1375 163.716 46.8266 162.136 48.0913L142.824 63.5403C142.455 63.8356 142.218 64.2656 142.166 64.7356C142.113 65.2056 142.25 65.6772 142.545 66.0466C142.84 66.416 143.27 66.6529 143.74 66.7053C144.21 66.7577 144.682 66.6212 145.051 66.3259L146.908 64.838V89.2949H143.937C143.464 89.2949 143.011 89.4827 142.676 89.817C142.342 90.1513 142.154 90.6047 142.154 91.0774C142.154 91.5502 142.342 92.0036 142.676 92.3379C143.011 92.6722 143.464 92.86 143.937 92.86H191.472C191.945 92.86 192.398 92.6722 192.732 92.3379C193.067 92.0036 193.254 91.5502 193.254 91.0774C193.254 90.6047 193.067 90.1513 192.732 89.817C192.398 89.4827 191.945 89.2949 191.472 89.2949H188.501V64.838ZM161.168 61.3679C161.168 59.6345 161.857 57.972 163.083 56.7462C164.308 55.5205 165.971 54.8318 167.704 54.8318C169.438 54.8318 171.1 55.5205 172.326 56.7462C173.552 57.972 174.24 59.6345 174.24 61.3679C174.24 63.1014 173.552 64.7639 172.326 65.9896C171.1 67.2154 169.438 67.904 167.704 67.904C165.971 67.904 164.308 67.2154 163.083 65.9896C161.857 64.7639 161.168 63.1014 161.168 61.3679ZM167.823 70.2808C169.401 70.2808 170.763 70.2808 171.854 70.4281C173.023 70.585 174.143 70.9391 175.051 71.8471C175.959 72.755 176.313 73.8744 176.47 75.0438C176.608 76.0658 176.617 77.3255 176.617 78.7825V89.2949H173.052V79.1936C173.052 77.4634 173.047 76.3415 172.938 75.5192C172.833 74.7467 172.667 74.5043 172.529 74.3688C172.391 74.2333 172.151 74.0646 171.379 73.96C170.554 73.8507 169.435 73.8459 167.704 73.8459C165.974 73.8459 164.852 73.8507 164.03 73.96C163.257 74.0646 163.015 74.2333 162.879 74.3688C162.744 74.5043 162.575 74.7467 162.471 75.5192C162.361 76.3439 162.357 77.4634 162.357 79.1936V89.2949H158.791V79.0748C158.791 77.4966 158.791 76.1347 158.939 75.0438C159.096 73.8744 159.45 72.755 160.358 71.8471C161.266 70.9391 162.387 70.585 163.554 70.4281C164.645 70.2808 166.007 70.2808 167.588 70.2808H167.823Z" fill="white"/>
<path d="M164.733 61.3679C164.733 60.58 165.046 59.8243 165.604 59.2671C166.161 58.71 166.916 58.397 167.704 58.397C168.492 58.397 169.248 58.71 169.805 59.2671C170.362 59.8243 170.675 60.58 170.675 61.3679C170.675 62.1559 170.362 62.9115 169.805 63.4687C169.248 64.0259 168.492 64.3389 167.704 64.3389C166.916 64.3389 166.161 64.0259 165.604 63.4687C165.046 62.9115 164.733 62.1559 164.733 61.3679Z" fill="white"/>
<path d="M54.1902 53.0493H57.7554V60.1795H54.1902V53.0493ZM54.1902 63.7447H57.7554V70.875H54.1902V63.7447ZM64.8857 53.0493H68.4508V60.1795H64.8857V53.0493ZM64.8857 63.7447H68.4508V70.875H64.8857V63.7447ZM54.1902 74.4401H57.7554V81.5704H54.1902V74.4401ZM64.8857 74.4401H68.4508V81.5704H64.8857V74.4401Z" fill="white"/>
<path d="M93.4068 63.7447C93.4068 62.7991 93.0312 61.8923 92.3626 61.2237C91.694 60.5551 90.7872 60.1795 89.8416 60.1795H79.1462V45.919C79.1462 44.9734 78.7706 44.0666 78.102 43.398C77.4334 42.7294 76.5266 42.3538 75.5811 42.3538H47.06C46.1144 42.3538 45.2076 42.7294 44.539 43.398C43.8704 44.0666 43.4948 44.9734 43.4948 45.919V92.2658H93.4068V63.7447ZM47.06 45.919H75.5811V88.7007H47.06V45.919ZM79.1462 88.7007V63.7447H89.8416V88.7007H79.1462Z" fill="white"/>
</svg>
