<svg width="40" height="40" viewBox="0 0 40 40" fill="none" xmlns="http://www.w3.org/2000/svg">
<path d="M3.33337 20C3.33337 13.3217 3.33337 9.98337 5.28671 7.90837C7.24004 5.83337 10.3817 5.83337 16.6667 5.83337H23.3334C29.6184 5.83337 32.7617 5.83337 34.7134 7.90837C36.665 9.98337 36.6667 13.3217 36.6667 20C36.6667 26.6784 36.6667 30.0167 34.7134 32.0917C32.76 34.1667 29.6184 34.1667 23.3334 34.1667H16.6667C10.3817 34.1667 7.23837 34.1667 5.28671 32.0917C3.33504 30.0167 3.33337 26.6784 3.33337 20Z" stroke="#01255A" stroke-width="3" stroke-linecap="round" stroke-linejoin="round"/>
<path d="M30.0001 27.5001H25.0001M11.4801 18.0517C13.0451 17.1384 14.4101 17.5067 15.2301 18.0934C15.5668 18.3334 15.7351 18.4534 15.8334 18.4534C15.9334 18.4534 16.1001 18.3334 16.4368 18.0934C17.2568 17.5067 18.6218 17.1384 20.1868 18.0517C22.2401 19.2517 22.7034 23.2084 17.9701 26.5467C17.0668 27.1817 16.6151 27.5001 15.8334 27.5001C15.0518 27.5001 14.6001 27.1834 13.6984 26.5467C8.96342 23.2084 9.42509 19.2517 11.4801 18.0517Z" stroke="#01255A" stroke-width="3" stroke-linecap="round" stroke-linejoin="round"/>
</svg>
