<svg width="30" height="30" viewBox="0 0 30 30" fill="none" xmlns="http://www.w3.org/2000/svg">
<g clip-path="url(#clip0_967_12)">
<path d="M12.3128 13.5986V12.3728C12.3128 11.8045 12.5386 11.2595 12.9404 10.8576C13.3423 10.4557 13.8873 10.23 14.4557 10.23H15.5485C16.1168 10.23 16.6619 10.4557 17.0638 10.8576C17.4656 11.2595 17.6914 11.8045 17.6914 12.3728V13.5986M11.2971 13.5986H18.7007C18.7007 13.5986 20.8435 13.5986 20.8435 15.7414V21.0043C20.8435 21.0043 20.8435 23.1471 18.7007 23.1471H11.2971C11.2971 23.1471 9.15424 23.1471 9.15424 21.0043V15.7414C9.15424 15.7414 9.15424 13.5986 11.2971 13.5986Z" stroke="#124A9F" stroke-width="2" stroke-linecap="round" stroke-linejoin="round"/>
<path d="M28.9285 14.8714C28.9306 14.574 28.8706 14.2794 28.7526 14.0064C28.6345 13.7334 28.4609 13.4879 28.2428 13.2857L15 1.07141L1.75711 13.2857C1.53902 13.4879 1.36543 13.7334 1.24737 14.0064C1.12932 14.2794 1.06939 14.574 1.0714 14.8714V26.7857C1.0714 27.354 1.29716 27.8991 1.69903 28.3009C2.10089 28.7028 2.64594 28.9286 3.21426 28.9286H26.7857C27.354 28.9286 27.899 28.7028 28.3009 28.3009C28.7028 27.8991 28.9285 27.354 28.9285 26.7857V14.8714Z" stroke="#124A9F" stroke-width="2" stroke-linecap="round" stroke-linejoin="round"/>
</g>
<defs>
<clipPath id="clip0_967_12">
<rect width="30" height="30" fill="white"/>
</clipPath>
</defs>
</svg>
