<svg width="40" height="40" viewBox="0 0 40 40" fill="none" xmlns="http://www.w3.org/2000/svg">
<path fill-rule="evenodd" clip-rule="evenodd" d="M18.3333 3.33337C21.555 3.33337 24.1667 5.94501 24.1667 9.16666C24.1667 12.281 21.7262 14.8253 18.6534 14.9913L18.3333 15C15.1117 15 12.5 12.3884 12.5 9.16666C12.5 6.05244 14.9405 3.50806 18.0133 3.34197L18.3333 3.33337ZM6.66663 33.3334H21.3378C20.7415 32.3031 20.3352 31.174 20.1383 30H9.99999V27.3334L10.0087 27.0098C10.1694 24.0125 12.5489 21.6667 15.4166 21.6667H21.25L21.5553 21.6756C21.8529 21.693 22.1444 21.7356 22.4278 21.8015C23.2705 20.8251 24.2935 20.0201 25.4408 19.4308C24.1962 18.7311 22.7683 18.3334 21.25 18.3334H15.4166L15.056 18.3409C10.3908 18.5354 6.66663 22.487 6.66663 27.3334V33.3334ZM15.8333 9.16666C15.8333 7.78595 16.9526 6.66666 18.3333 6.66666C19.714 6.66666 20.8333 7.78595 20.8333 9.16666C20.8333 10.5474 19.714 11.6667 18.3333 11.6667C16.9526 11.6667 15.8333 10.5474 15.8333 9.16666ZM25.1018 35.0752L30 32.0834L34.8982 35.0752L33.5665 29.4921L37.9255 25.7582L32.2042 25.2995L30 20L27.7958 25.2995L22.0745 25.7582L26.4335 29.4921L25.1018 35.0752Z" fill="#01255A"/>
</svg>
