<svg width="30" height="30" viewBox="0 0 30 30" fill="none" xmlns="http://www.w3.org/2000/svg">
<path d="M23.1 15C22.0513 14.121 20.718 13.6543 19.35 13.6875H10.5562C10.1553 13.6977 9.75643 13.6268 9.38352 13.4791C9.01062 13.3315 8.67133 13.1101 8.38599 12.8283C8.10064 12.5464 7.8751 12.2099 7.72286 11.8389C7.57062 11.4678 7.49482 11.0698 7.49999 10.6688C7.49022 10.5127 7.49022 10.3561 7.49999 10.2C7.61822 9.48343 7.99399 8.83463 8.55673 8.37546C9.11947 7.91629 9.83048 7.67834 10.5562 7.7063H19.2187C19.9254 7.70568 20.6092 7.95606 21.1484 8.4128C21.6875 8.86954 22.0469 9.50294 22.1625 10.2H24.975C24.8573 8.7543 24.1998 7.40581 23.1332 6.42266C22.0667 5.43951 20.6693 4.89372 19.2187 4.8938H16.2562V0.581299H13.9125V4.8938H10.5562C9.10571 4.89372 7.70827 5.43951 6.64175 6.42266C5.57522 7.40581 4.91773 8.7543 4.79999 10.2C4.79022 10.3561 4.79022 10.5127 4.79999 10.6688C4.79999 11.4247 4.94888 12.1732 5.23816 12.8716C5.52744 13.57 5.95144 14.2046 6.48596 14.7391C7.56547 15.8186 9.02959 16.425 10.5562 16.425H19.4437C19.8415 16.415 20.2373 16.4848 20.6077 16.6301C20.9781 16.7754 21.3156 16.9934 21.6005 17.2713C21.8853 17.5491 22.1116 17.8812 22.2661 18.2478C22.4206 18.6145 22.5001 19.0084 22.5 19.4063C22.5181 19.6184 22.5181 19.8317 22.5 20.0438C22.3511 20.7035 21.9824 21.293 21.4542 21.7155C20.9261 22.138 20.2701 22.3684 19.5937 22.3688H10.7812C10.1049 22.3684 9.44886 22.138 8.92075 21.7155C8.39264 21.293 8.02387 20.7035 7.87499 20.0438H5.04375C5.20488 21.4526 5.87869 22.7529 6.93678 23.6968C7.99486 24.6408 9.36327 25.1625 10.7812 25.1625H13.9125V29.4188H16.2562V25.1625H19.4437C20.8617 25.1625 22.2301 24.6408 23.2882 23.6968C24.3463 22.7529 25.0201 21.4526 25.1812 20.0438V19.4063C25.179 18.5641 24.9913 17.7327 24.6317 16.9712C24.272 16.2097 23.749 15.5367 23.1 15Z" fill="#124A9F"/>
</svg>
