<svg width="30" height="30" viewBox="0 0 30 30" fill="none" xmlns="http://www.w3.org/2000/svg">
<g clip-path="url(#clip0_967_2)">
<path d="M28.852 0H19.2092C19.0829 0 18.9796 0.103316 18.9796 0.229592V2.37245C18.9796 2.49872 19.0829 2.60204 19.2092 2.60204H25.3469L17.7207 10.2283C15.8074 8.7551 13.4732 7.95918 11.0204 7.95918C8.07781 7.95918 5.3074 9.10714 3.22959 11.1888C1.15179 13.2704 0 16.037 0 18.9796C0 21.9222 1.14796 24.6926 3.22959 26.7704C5.3074 28.852 8.07781 30 11.0204 30C13.963 30 16.7334 28.852 18.8112 26.7704C20.8929 24.6926 22.0408 21.9222 22.0408 18.9796C22.0408 16.5268 21.2449 14.2003 19.7755 12.287L27.398 4.66454V10.7908C27.398 10.9171 27.5013 11.0204 27.6276 11.0204H29.7704C29.8967 11.0204 30 10.9171 30 10.7908V1.14796C30 0.516582 29.4834 0 28.852 0ZM11.0204 27.0918C6.54719 27.0918 2.90816 23.4528 2.90816 18.9796C2.90816 14.5064 6.54719 10.8673 11.0204 10.8673C15.4936 10.8673 19.1327 14.5064 19.1327 18.9796C19.1327 23.4528 15.4936 27.0918 11.0204 27.0918Z" fill="#124A9F"/>
</g>
<defs>
<clipPath id="clip0_967_2">
<rect width="30" height="30" fill="white"/>
</clipPath>
</defs>
</svg>
