<svg width="747" height="41" viewBox="0 0 747 41" fill="none" xmlns="http://www.w3.org/2000/svg">
<rect y="0.744995" width="149.4" height="40.2575" fill="#124A9F"/>
<rect x="149.4" y="0.744995" width="149.4" height="40.2575" fill="#3BD8FF"/>
<rect x="298.8" y="0.744995" width="149.4" height="40.2575" fill="#C5F4FF"/>
<rect x="448.2" y="0.744995" width="149.4" height="40.2575" fill="white"/>
<rect x="597.6" y="0.744995" width="149.4" height="40.2575" fill="#01255A"/>
<path d="M46.1616 28L47.9513 17.0909H49.2298L47.44 28H46.1616ZM41.2237 25.081L41.4315 23.8026H49.6985L49.4908 25.081H41.2237ZM42.3263 28L44.1161 17.0909H45.3945L43.6048 28H42.3263ZM41.8576 21.2884L42.0653 20.0099H50.3324L50.1246 21.2884H41.8576ZM55.739 17.0909V28H54.0877V18.7422H54.0238L51.4137 20.4467V18.87L54.1357 17.0909H55.739ZM58.69 28V26.8068L62.3814 22.9822C62.7756 22.5668 63.1005 22.2028 63.3562 21.8903C63.6154 21.5742 63.8089 21.2741 63.9368 20.9901C64.0646 20.706 64.1286 20.4041 64.1286 20.0845C64.1286 19.7223 64.0433 19.4098 63.8729 19.147C63.7024 18.8807 63.4698 18.6765 63.1751 18.5344C62.8803 18.3888 62.5483 18.3161 62.179 18.3161C61.7884 18.3161 61.4474 18.396 61.1562 18.5558C60.8651 18.7156 60.6413 18.9411 60.4851 19.2322C60.3288 19.5234 60.2507 19.8643 60.2507 20.255H58.6793C58.6793 19.5909 58.832 19.0103 59.1374 18.5131C59.4428 18.016 59.8619 17.6307 60.3945 17.3572C60.9272 17.0803 61.5327 16.9418 62.2109 16.9418C62.8963 16.9418 63.5 17.0785 64.022 17.3519C64.5476 17.6218 64.9577 17.9911 65.2525 18.4599C65.5472 18.9251 65.6946 19.4506 65.6946 20.0366C65.6946 20.4414 65.6183 20.8374 65.4656 21.2244C65.3164 21.6115 65.0554 22.043 64.6825 22.5188C64.3097 22.9911 63.7912 23.5646 63.1271 24.2393L60.9592 26.5085V26.5884H65.8704V28H58.69ZM67.4258 25.8693V24.5376L72.1399 17.0909H73.1893V19.0511H72.5234L69.1516 24.3885V24.4737H75.6129V25.8693H67.4258ZM72.598 28V25.4645L72.6087 24.8572V17.0909H74.1694V28H72.598ZM78.54 28H76.7928L80.7186 17.0909H82.6202L86.546 28H84.7988L81.7147 19.0724H81.6294L78.54 28ZM78.8329 23.728H84.5005V25.1129H78.8329V23.728ZM91.5997 16.9418C92.0862 16.9453 92.5656 17.0341 93.0379 17.2081C93.5102 17.3821 93.9363 17.6662 94.3163 18.0604C94.6998 18.4545 95.0052 18.9872 95.2325 19.6584C95.4633 20.326 95.5805 21.157 95.5841 22.1513C95.5841 23.1065 95.4882 23.957 95.2964 24.7028C95.1047 25.445 94.8295 26.0717 94.4708 26.5831C94.1157 27.0945 93.6842 27.4833 93.1764 27.7496C92.6686 28.016 92.0969 28.1491 91.4612 28.1491C90.8113 28.1491 90.2343 28.0213 89.73 27.7656C89.2258 27.5099 88.8156 27.1566 88.4996 26.7056C88.1835 26.2511 87.9864 25.729 87.9083 25.1396H89.5329C89.6395 25.6083 89.8561 25.9883 90.1828 26.2795C90.5131 26.5671 90.9392 26.7109 91.4612 26.7109C92.2602 26.7109 92.8834 26.3629 93.3309 25.6669C93.7783 24.9673 94.0038 23.9908 94.0074 22.7372H93.9221C93.7375 23.0426 93.5067 23.3054 93.2297 23.5256C92.9562 23.7457 92.6491 23.9162 92.3082 24.0369C91.9672 24.1577 91.6032 24.218 91.2162 24.218C90.5876 24.218 90.0159 24.0636 89.501 23.7546C88.9861 23.4457 88.5759 23.0213 88.2705 22.4815C87.9651 21.9418 87.8124 21.3256 87.8124 20.6332C87.8124 19.9442 87.9687 19.3192 88.2812 18.7582C88.5972 18.1971 89.0376 17.7532 89.6022 17.4265C90.1704 17.0962 90.8362 16.9347 91.5997 16.9418ZM91.605 18.3267C91.1895 18.3267 90.8149 18.4297 90.4811 18.6357C90.1508 18.8381 89.8898 19.1133 89.6981 19.4613C89.5063 19.8058 89.4104 20.1893 89.4104 20.6119C89.4104 21.0344 89.5028 21.418 89.6874 21.7624C89.8756 22.1033 90.1313 22.375 90.4545 22.5774C90.7812 22.7763 91.154 22.8757 91.5731 22.8757C91.8856 22.8757 92.1768 22.8153 92.4466 22.6946C92.7165 22.5739 92.9527 22.407 93.1551 22.1939C93.3575 21.9773 93.5155 21.7322 93.6292 21.4588C93.7428 21.1854 93.7996 20.8977 93.7996 20.5959C93.7996 20.1946 93.7037 19.8217 93.512 19.4773C93.3238 19.1328 93.0645 18.8558 92.7343 18.6463C92.404 18.4332 92.0276 18.3267 91.605 18.3267ZM97.6575 28V17.0909H104.422V18.5078H99.3034V21.8317H103.938V23.2433H99.3034V28H97.6575Z" fill="white"/>
<path d="M194.187 27.6911L195.976 16.782H197.255L195.465 27.6911H194.187ZM189.249 24.7721L189.457 23.4937H197.724L197.516 24.7721H189.249ZM190.351 27.6911L192.141 16.782H193.42L191.63 27.6911H190.351ZM189.883 20.9795L190.09 19.701H198.358L198.15 20.9795H189.883ZM203.423 27.8402C202.692 27.8402 202.038 27.7142 201.463 27.4621C200.891 27.2099 200.438 26.8601 200.105 26.4127C199.774 25.9617 199.597 25.4397 199.572 24.8466H201.245C201.266 25.1698 201.374 25.4503 201.57 25.6883C201.768 25.9226 202.028 26.1037 202.347 26.2316C202.667 26.3594 203.022 26.4233 203.413 26.4233C203.842 26.4233 204.222 26.3488 204.552 26.1996C204.886 26.0505 205.147 25.8427 205.336 25.5764C205.524 25.3065 205.618 24.9958 205.618 24.6442C205.618 24.2785 205.524 23.9571 205.336 23.6801C205.151 23.3996 204.879 23.1794 204.521 23.0196C204.165 22.8598 203.736 22.7799 203.231 22.7799H202.31V21.4375H203.231C203.636 21.4375 203.991 21.3648 204.297 21.2192C204.606 21.0736 204.847 20.8711 205.021 20.6119C205.195 20.3491 205.282 20.042 205.282 19.6904C205.282 19.353 205.206 19.0601 205.053 18.8115C204.904 18.5594 204.691 18.3623 204.414 18.2202C204.141 18.0782 203.817 18.0072 203.445 18.0072C203.089 18.0072 202.757 18.0728 202.448 18.2042C202.143 18.3321 201.894 18.5167 201.703 18.7582C201.511 18.9961 201.408 19.282 201.394 19.6158H199.801C199.819 19.0263 199.993 18.5079 200.323 18.0604C200.657 17.613 201.097 17.2632 201.644 17.0111C202.191 16.7589 202.798 16.6329 203.466 16.6329C204.165 16.6329 204.769 16.7696 205.277 17.043C205.788 17.3129 206.182 17.6733 206.459 18.1243C206.74 18.5753 206.878 19.0689 206.875 19.6052C206.878 20.216 206.708 20.7344 206.364 21.1606C206.023 21.5867 205.568 21.8726 205 22.0182V22.1034C205.724 22.2135 206.285 22.5011 206.683 22.9663C207.084 23.4315 207.283 24.0086 207.28 24.6975C207.283 25.2976 207.116 25.8356 206.779 26.3115C206.445 26.7873 205.989 27.162 205.41 27.4354C204.831 27.7053 204.169 27.8402 203.423 27.8402ZM209.442 27.6911V16.782H213.437C214.212 16.782 214.853 16.9099 215.36 17.1655C215.868 17.4177 216.248 17.7603 216.5 18.1936C216.752 18.6233 216.878 19.108 216.878 19.6478C216.878 20.1023 216.795 20.4858 216.628 20.7983C216.461 21.1073 216.238 21.3559 215.957 21.5441C215.68 21.7287 215.375 21.8637 215.041 21.9489V22.0554C215.403 22.0732 215.756 22.1904 216.101 22.407C216.449 22.6201 216.736 22.9237 216.964 23.3179C217.191 23.7121 217.305 24.1915 217.305 24.7561C217.305 25.3136 217.173 25.8143 216.91 26.2582C216.651 26.6986 216.25 27.0483 215.707 27.3076C215.163 27.5633 214.469 27.6911 213.624 27.6911H209.442ZM211.088 26.2795H213.464C214.252 26.2795 214.817 26.1268 215.158 25.8214C215.499 25.516 215.669 25.1343 215.669 24.6762C215.669 24.3317 215.582 24.0157 215.408 23.728C215.234 23.4404 214.986 23.2113 214.663 23.0409C214.343 22.8704 213.963 22.7852 213.523 22.7852H211.088V26.2795ZM211.088 21.5015H213.294C213.663 21.5015 213.995 21.4304 214.29 21.2884C214.588 21.1464 214.824 20.9475 214.998 20.6918C215.176 20.4326 215.264 20.1272 215.264 19.7756C215.264 19.3246 215.106 18.9464 214.79 18.641C214.474 18.3356 213.99 18.1829 213.336 18.1829H211.088V21.5015ZM222.788 27.6911H219.257V16.782H222.9C223.969 16.782 224.887 17.0004 225.654 17.4372C226.421 17.8704 227.009 18.4937 227.417 19.3069C227.829 20.1165 228.035 21.0878 228.035 22.2206C228.035 23.3569 227.828 24.3335 227.412 25.1503C227 25.967 226.404 26.5956 225.622 27.0359C224.841 27.4727 223.896 27.6911 222.788 27.6911ZM220.903 26.2529H222.698C223.529 26.2529 224.22 26.0966 224.77 25.7841C225.32 25.4681 225.732 25.0118 226.006 24.4152C226.279 23.815 226.416 23.0835 226.416 22.2206C226.416 21.3648 226.279 20.6385 226.006 20.042C225.736 19.4454 225.333 18.9926 224.797 18.6836C224.26 18.3747 223.595 18.2202 222.799 18.2202H220.903V26.2529ZM233.619 27.8402C232.855 27.8402 232.181 27.7089 231.595 27.4461C231.012 27.1833 230.556 26.8211 230.226 26.3594C229.896 25.8978 229.732 25.3722 229.736 24.7827C229.732 24.3211 229.826 23.8967 230.018 23.5096C230.213 23.119 230.478 22.7941 230.812 22.5349C231.146 22.2721 231.518 22.1052 231.93 22.0341V21.9702C231.387 21.8388 230.952 21.5476 230.625 21.0966C230.299 20.6456 230.137 20.1272 230.141 19.5412C230.137 18.9837 230.284 18.4866 230.583 18.0498C230.885 17.6094 231.298 17.2632 231.824 17.0111C232.349 16.7589 232.948 16.6329 233.619 16.6329C234.283 16.6329 234.876 16.7607 235.398 17.0164C235.924 17.2685 236.337 17.6148 236.639 18.0551C236.941 18.4919 237.094 18.9873 237.097 19.5412C237.094 20.1272 236.927 20.6456 236.597 21.0966C236.266 21.5476 235.837 21.8388 235.308 21.9702V22.0341C235.716 22.1052 236.083 22.2721 236.41 22.5349C236.74 22.7941 237.003 23.119 237.199 23.5096C237.397 23.8967 237.499 24.3211 237.502 24.7827C237.499 25.3722 237.332 25.8978 237.001 26.3594C236.671 26.8211 236.213 27.1833 235.627 27.4461C235.045 27.7089 234.375 27.8402 233.619 27.8402ZM233.619 26.4926C234.07 26.4926 234.461 26.418 234.791 26.2689C235.121 26.1162 235.377 25.9049 235.558 25.635C235.739 25.3616 235.831 25.042 235.835 24.6762C235.831 24.2962 235.732 23.9606 235.537 23.6694C235.345 23.3782 235.084 23.1492 234.754 22.9823C234.423 22.8154 234.045 22.7319 233.619 22.7319C233.189 22.7319 232.808 22.8154 232.474 22.9823C232.14 23.1492 231.877 23.3782 231.685 23.6694C231.494 23.9606 231.4 24.2962 231.403 24.6762C231.4 25.042 231.487 25.3616 231.664 25.635C231.845 25.9049 232.103 26.1162 232.436 26.2689C232.77 26.418 233.164 26.4926 233.619 26.4926ZM233.619 21.4162C233.981 21.4162 234.303 21.3434 234.583 21.1978C234.864 21.0523 235.084 20.8498 235.244 20.5906C235.407 20.3314 235.49 20.0277 235.494 19.6797C235.49 19.3388 235.409 19.0405 235.249 18.7849C235.093 18.5292 234.874 18.3321 234.594 18.1936C234.313 18.0515 233.988 17.9805 233.619 17.9805C233.243 17.9805 232.912 18.0515 232.628 18.1936C232.348 18.3321 232.129 18.5292 231.973 18.7849C231.817 19.0405 231.74 19.3388 231.744 19.6797C231.74 20.0277 231.819 20.3314 231.978 20.5906C232.138 20.8498 232.358 21.0523 232.639 21.1978C232.923 21.3434 233.25 21.4162 233.619 21.4162ZM239.56 27.6911V16.782H246.325V18.1989H241.206V21.5228H245.84V22.9344H241.206V27.6911H239.56ZM248.349 27.6911V16.782H255.114V18.1989H249.995V21.5228H254.629V22.9344H249.995V27.6911H248.349Z" fill="white"/>
<path d="M343.587 27.6911L345.376 16.782H346.655L344.865 27.6911H343.587ZM338.649 24.7721L338.857 23.4937H347.124L346.916 24.7721H338.649ZM339.751 27.6911L341.541 16.782H342.82L341.03 27.6911H339.751ZM339.283 20.9795L339.49 19.701H347.757L347.55 20.9795H339.283ZM358.235 20.3296H356.573C356.509 19.9745 356.39 19.662 356.216 19.3921C356.042 19.1222 355.829 18.8932 355.577 18.7049C355.325 18.5167 355.043 18.3747 354.73 18.2788C354.421 18.1829 354.093 18.135 353.745 18.135C353.116 18.135 352.553 18.293 352.056 18.6091C351.562 18.9251 351.172 19.3885 350.884 19.9993C350.6 20.6101 350.458 21.3559 350.458 22.2366C350.458 23.1243 350.6 23.8736 350.884 24.4844C351.172 25.0952 351.564 25.5569 352.061 25.8694C352.559 26.1819 353.118 26.3381 353.739 26.3381C354.084 26.3381 354.41 26.292 354.719 26.1996C355.032 26.1037 355.314 25.9635 355.566 25.7788C355.819 25.5942 356.032 25.3687 356.206 25.1023C356.383 24.8324 356.506 24.5235 356.573 24.1755L358.235 24.1808C358.146 24.717 357.974 25.2106 357.718 25.6616C357.466 26.1091 357.141 26.4961 356.744 26.8228C356.349 27.146 355.898 27.3964 355.391 27.5739C354.883 27.7515 354.329 27.8402 353.729 27.8402C352.784 27.8402 351.942 27.6165 351.204 27.1691C350.465 26.7181 349.883 26.0736 349.457 25.2355C349.034 24.3974 348.823 23.3978 348.823 22.2366C348.823 21.0718 349.036 20.0721 349.462 19.2376C349.888 18.3996 350.471 17.7568 351.209 17.3094C351.948 16.8584 352.788 16.6329 353.729 16.6329C354.308 16.6329 354.847 16.7163 355.348 16.8832C355.852 17.0466 356.305 17.288 356.706 17.6076C357.108 17.9237 357.44 18.3108 357.702 18.7689C357.965 19.2234 358.143 19.7437 358.235 20.3296ZM363.656 27.8402C362.989 27.8402 362.389 27.7124 361.856 27.4567C361.327 27.1975 360.904 26.8424 360.588 26.3914C360.272 25.9404 360.103 25.4255 360.082 24.8466H361.68C361.719 25.3154 361.927 25.7007 362.303 26.0025C362.68 26.3044 363.131 26.4553 363.656 26.4553C364.075 26.4553 364.446 26.3594 364.77 26.1677C365.096 25.9724 365.352 25.7042 365.537 25.3633C365.725 25.0224 365.819 24.6336 365.819 24.1968C365.819 23.7529 365.723 23.3569 365.531 23.0089C365.34 22.6609 365.075 22.3875 364.738 22.1886C364.404 21.9898 364.02 21.8885 363.587 21.885C363.257 21.885 362.925 21.9418 362.591 22.0554C362.257 22.1691 361.987 22.3182 361.781 22.5029L360.274 22.2792L360.886 16.782H366.884V18.1936H362.255L361.909 21.2458H361.973C362.186 21.0398 362.468 20.8676 362.82 20.7291C363.175 20.5906 363.555 20.5214 363.96 20.5214C364.624 20.5214 365.215 20.6794 365.734 20.9954C366.256 21.3115 366.666 21.7429 366.964 22.2898C367.266 22.8331 367.415 23.4581 367.412 24.1648C367.415 24.8715 367.255 25.5018 366.932 26.0558C366.613 26.6098 366.169 27.0466 365.601 27.3662C365.036 27.6822 364.388 27.8402 363.656 27.8402ZM369.506 27.6911V16.782H376.271V18.1989H371.152V21.5228H375.787V22.9344H371.152V27.6911H369.506ZM377.917 25.5604V24.2287L382.631 16.782H383.681V18.7422H383.015L379.643 24.0796V24.1648H386.104V25.5604H377.917ZM383.089 27.6911V25.1556L383.1 24.5483V16.782H384.661V27.6911H383.089ZM388.11 27.6911V16.782H394.875V18.1989H389.756V21.5228H394.39V22.9344H389.756V27.6911H388.11ZM396.899 27.6911V16.782H403.664V18.1989H398.545V21.5228H403.179V22.9344H398.545V27.6911H396.899Z" fill="black"/>
<path d="M492.987 27.6911L494.777 16.782H496.055L494.265 27.6911H492.987ZM488.049 24.7721L488.257 23.4937H496.524L496.316 24.7721H488.049ZM489.152 27.6911L490.941 16.782H492.22L490.43 27.6911H489.152ZM488.683 20.9795L488.891 19.701H497.158L496.95 20.9795H488.683ZM498.574 27.6911V16.782H505.339V18.1989H500.22V21.5228H504.855V22.9344H500.22V27.6911H498.574ZM507.364 27.6911V16.782H514.128V18.1989H509.009V21.5228H513.644V22.9344H509.009V27.6911H507.364ZM516.153 27.6911V16.782H522.918V18.1989H517.799V21.5228H522.433V22.9344H517.799V27.6911H516.153ZM524.942 27.6911V16.782H531.707V18.1989H526.588V21.5228H531.222V22.9344H526.588V27.6911H524.942ZM533.731 27.6911V16.782H540.496V18.1989H535.377V21.5228H540.011V22.9344H535.377V27.6911H533.731ZM542.52 27.6911V16.782H549.285V18.1989H544.166V21.5228H548.8V22.9344H544.166V27.6911H542.52Z" fill="black"/>
<path d="M646.387 26.7964L648.176 15.8874H649.455L647.665 26.7964H646.387ZM641.449 23.8774L641.657 22.599H649.924L649.716 23.8774H641.449ZM642.551 26.7964L644.341 15.8874H645.62L643.83 26.7964H642.551ZM642.083 20.0848L642.29 18.8064H650.557L650.35 20.0848H642.083ZM655.623 26.9776C654.782 26.974 654.062 26.7521 653.466 26.3117C652.869 25.8714 652.413 25.2304 652.097 24.3888C651.781 23.5472 651.623 22.5333 651.623 21.3472C651.623 20.1647 651.781 19.1544 652.097 18.3163C652.417 17.4783 652.875 16.8391 653.471 16.3987C654.071 15.9584 654.789 15.7382 655.623 15.7382C656.458 15.7382 657.173 15.9602 657.77 16.404C658.366 16.8444 658.823 17.4836 659.139 18.3217C659.458 19.1562 659.618 20.1647 659.618 21.3472C659.618 22.5369 659.46 23.5525 659.144 24.3941C658.828 25.2322 658.372 25.8732 657.775 26.317C657.179 26.7574 656.461 26.9776 655.623 26.9776ZM655.623 25.5553C656.362 25.5553 656.939 25.1949 657.354 24.474C657.773 23.7531 657.983 22.7109 657.983 21.3472C657.983 20.4417 657.887 19.6764 657.695 19.0514C657.507 18.4229 657.235 17.947 656.88 17.6239C656.529 17.2972 656.11 17.1338 655.623 17.1338C654.888 17.1338 654.311 17.496 653.892 18.2205C653.473 18.9449 653.262 19.9871 653.258 21.3472C653.258 22.2563 653.352 23.0251 653.54 23.6537C653.732 24.2787 654.004 24.7528 654.355 25.0759C654.707 25.3955 655.13 25.5553 655.623 25.5553ZM665.647 15.8874V26.7964H663.995V17.5386H663.932L661.321 19.2432V17.6665L664.043 15.8874H665.647ZM668.598 26.7964V25.6033L672.289 21.7787C672.683 21.3632 673.008 20.9992 673.264 20.6867C673.523 20.3707 673.717 20.0706 673.845 19.7865C673.972 19.5024 674.036 19.2006 674.036 18.881C674.036 18.5187 673.951 18.2062 673.781 17.9435C673.61 17.6771 673.378 17.4729 673.083 17.3309C672.788 17.1853 672.456 17.1125 672.087 17.1125C671.696 17.1125 671.355 17.1924 671.064 17.3522C670.773 17.512 670.549 17.7375 670.393 18.0287C670.237 18.3199 670.158 18.6608 670.158 19.0514H668.587C668.587 18.3874 668.74 17.8067 669.045 17.3096C669.351 16.8124 669.77 16.4271 670.302 16.1537C670.835 15.8767 671.44 15.7382 672.119 15.7382C672.804 15.7382 673.408 15.8749 673.93 16.1484C674.455 16.4183 674.865 16.7876 675.16 17.2563C675.455 17.7215 675.602 18.2471 675.602 18.833C675.602 19.2379 675.526 19.6338 675.373 20.0209C675.224 20.408 674.963 20.8394 674.59 21.3153C674.217 21.7876 673.699 22.3611 673.035 23.0358L670.867 25.305V25.3849H675.778V26.7964H668.598ZM681.398 26.9456C680.73 26.9456 680.13 26.8178 679.597 26.5621C679.068 26.3028 678.646 25.9477 678.33 25.4967C678.014 25.0457 677.845 24.5308 677.824 23.952H679.422C679.461 24.4207 679.668 24.806 680.045 25.1079C680.421 25.4097 680.872 25.5607 681.398 25.5607C681.817 25.5607 682.188 25.4648 682.511 25.273C682.838 25.0777 683.093 24.8096 683.278 24.4687C683.466 24.1278 683.56 23.7389 683.56 23.3021C683.56 22.8582 683.465 22.4623 683.273 22.1143C683.081 21.7663 682.816 21.4928 682.479 21.294C682.145 21.0951 681.762 20.9939 681.329 20.9903C680.998 20.9903 680.666 21.0472 680.332 21.1608C679.999 21.2744 679.729 21.4236 679.523 21.6082L678.015 21.3845L678.628 15.8874H684.626V17.2989H679.997L679.651 20.3511H679.715C679.928 20.1452 680.21 19.9729 680.561 19.8344C680.917 19.696 681.297 19.6267 681.701 19.6267C682.365 19.6267 682.957 19.7847 683.475 20.1008C683.997 20.4168 684.407 20.8483 684.706 21.3952C685.008 21.9385 685.157 22.5635 685.153 23.2702C685.157 23.9768 684.997 24.6072 684.674 25.1611C684.354 25.7151 683.91 26.1519 683.342 26.4715C682.777 26.7876 682.129 26.9456 681.398 26.9456ZM690.7 26.9456C690.032 26.9456 689.432 26.8178 688.899 26.5621C688.37 26.3028 687.947 25.9477 687.631 25.4967C687.315 25.0457 687.147 24.5308 687.125 23.952H688.723C688.762 24.4207 688.97 24.806 689.347 25.1079C689.723 25.4097 690.174 25.5607 690.7 25.5607C691.119 25.5607 691.49 25.4648 691.813 25.273C692.14 25.0777 692.395 24.8096 692.58 24.4687C692.768 24.1278 692.862 23.7389 692.862 23.3021C692.862 22.8582 692.766 22.4623 692.575 22.1143C692.383 21.7663 692.118 21.4928 691.781 21.294C691.447 21.0951 691.064 20.9939 690.63 20.9903C690.3 20.9903 689.968 21.0472 689.634 21.1608C689.3 21.2744 689.03 21.4236 688.825 21.6082L687.317 21.3845L687.93 15.8874H693.928V17.2989H689.299L688.952 20.3511H689.016C689.229 20.1452 689.512 19.9729 689.863 19.8344C690.218 19.696 690.598 19.6267 691.003 19.6267C691.667 19.6267 692.258 19.7847 692.777 20.1008C693.299 20.4168 693.709 20.8483 694.007 21.3952C694.309 21.9385 694.458 22.5635 694.455 23.2702C694.458 23.9768 694.299 24.6072 693.975 25.1611C693.656 25.7151 693.212 26.1519 692.644 26.4715C692.079 26.7876 691.431 26.9456 690.7 26.9456ZM697.471 26.7964H695.724L699.65 15.8874H701.551L705.477 26.7964H703.73L700.646 17.8689H700.561L697.471 26.7964ZM697.764 22.5244H703.432V23.9094H697.764V22.5244Z" fill="white"/>
</svg>
